<svg width="40" height="41" viewBox="0 0 40 41" fill="none" xmlns="http://www.w3.org/2000/svg">
<path opacity="0.2" d="M0.5 8.00781C0.5 3.86568 3.85786 0.507812 8 0.507812H32C36.1421 0.507812 39.5 3.86568 39.5 8.00781V32.0078C39.5 36.1499 36.1421 39.5078 32 39.5078H8C3.85786 39.5078 0.5 36.1499 0.5 32.0078V8.00781Z" fill="white" stroke="#080E14"/>
<path d="M20 11.0078C15.0299 11.0078 11 15.0377 11 20.0078C11 23.8207 13.3722 27.0773 16.7202 28.3882C16.6416 27.6765 16.5703 26.5837 16.7517 25.8066C16.9151 25.1046 17.8071 21.3329 17.8071 21.3329C17.8071 21.3329 17.5378 20.7936 17.5378 19.9971C17.5378 18.7454 18.263 17.8115 19.1661 17.8115C19.9342 17.8115 20.3046 18.3882 20.3046 19.0791C20.3046 19.8517 19.8134 21.0058 19.559 22.0754C19.3468 22.9716 20.0083 23.7023 20.8917 23.7023C22.4913 23.7023 23.7208 22.0155 23.7208 19.581C23.7208 17.4262 22.1728 15.9194 19.9619 15.9194C17.4014 15.9194 15.8984 17.8402 15.8984 19.8254C15.8984 20.5987 16.1961 21.4281 16.5682 21.8795C16.6416 21.9688 16.6523 22.0467 16.6305 22.1373C16.5623 22.4215 16.4107 23.0329 16.3806 23.1582C16.3415 23.3233 16.2501 23.3575 16.0798 23.2783C14.9555 22.7549 14.2528 21.1117 14.2528 19.7915C14.2528 16.9527 16.3152 14.3451 20.1997 14.3451C23.322 14.3451 25.7482 16.5695 25.7482 19.5433C25.7482 22.6452 23.7921 25.1413 21.0779 25.1413C20.1658 25.1413 19.3087 24.6674 19.0155 24.1077C19.0155 24.1077 18.5642 25.826 18.4544 26.2472C18.2512 27.0289 17.7029 28.0092 17.3353 28.6066C18.1775 28.8669 19.0723 29.0078 20 29.0078C24.9701 29.0078 29 24.9779 29 20.0078C29 15.0377 24.9704 11.0078 20 11.0078Z" fill="#007BFF"/>
</svg>
