<svg width="25" height="24" viewBox="0 0 25 24" fill="none" xmlns="http://www.w3.org/2000/svg">
<mask id="mask0_2908_420" style="mask-type:alpha" maskUnits="userSpaceOnUse" x="0" y="0" width="25" height="24">
<rect x="0.837891" width="24" height="24" fill="#D9D9D9"/>
</mask>
<g mask="url(#mask0_2908_420)">
<path d="M12.8379 15.4115C12.7173 15.4115 12.6052 15.3923 12.5013 15.3538C12.3975 15.3154 12.2988 15.2493 12.2052 15.1557L9.09559 12.0462C8.94687 11.8974 8.87348 11.7234 8.87542 11.5241C8.87733 11.3247 8.95072 11.1475 9.09559 10.9923C9.25072 10.8372 9.42892 10.7571 9.63019 10.752C9.83147 10.7468 10.0097 10.8218 10.1648 10.977L12.0879 12.9V5.25C12.0879 5.03718 12.1597 4.85898 12.3033 4.7154C12.4468 4.5718 12.625 4.5 12.8379 4.5C13.0507 4.5 13.2289 4.5718 13.3725 4.7154C13.516 4.85898 13.5878 5.03718 13.5878 5.25V12.9L15.5109 10.977C15.6596 10.8282 15.8362 10.7548 16.0407 10.7568C16.2452 10.7587 16.425 10.8372 16.5801 10.9923C16.725 11.1475 16.8 11.3231 16.8051 11.5193C16.8102 11.7154 16.7353 11.891 16.5801 12.0462L13.4705 15.1557C13.377 15.2493 13.2782 15.3154 13.1744 15.3538C13.0706 15.3923 12.9584 15.4115 12.8379 15.4115ZM7.14559 19.5C6.64046 19.5 6.21289 19.325 5.86289 18.975C5.51289 18.625 5.33789 18.1974 5.33789 17.6923V15.7307C5.33789 15.5179 5.40969 15.3397 5.55329 15.1961C5.69687 15.0525 5.87507 14.9808 6.08789 14.9808C6.30071 14.9808 6.47891 15.0525 6.62249 15.1961C6.76607 15.3397 6.83787 15.5179 6.83787 15.7307V17.6923C6.83787 17.7692 6.86992 17.8397 6.93402 17.9038C6.99813 17.9679 7.06866 18 7.14559 18H18.5301C18.6071 18 18.6776 17.9679 18.7417 17.9038C18.8058 17.8397 18.8379 17.7692 18.8379 17.6923V15.7307C18.8379 15.5179 18.9097 15.3397 19.0532 15.1961C19.1968 15.0525 19.375 14.9808 19.5878 14.9808C19.8007 14.9808 19.9789 15.0525 20.1224 15.1961C20.266 15.3397 20.3378 15.5179 20.3378 15.7307V17.6923C20.3378 18.1974 20.1628 18.625 19.8128 18.975C19.4628 19.325 19.0353 19.5 18.5301 19.5H7.14559Z" fill="#1C1B1F"/>
</g>
</svg>
