<svg width="25" height="24" viewBox="0 0 25 24" fill="none" xmlns="http://www.w3.org/2000/svg">
<mask id="mask0_2908_796" style="mask-type:alpha" maskUnits="userSpaceOnUse" x="0" y="0" width="25" height="24">
<rect x="0.5" width="24" height="24" fill="#D9D9D9"/>
</mask>
<g mask="url(#mask0_2908_796)">
<path d="M11.998 15C11.8965 15 11.802 14.984 11.7145 14.9521C11.627 14.9201 11.5439 14.8653 11.465 14.7876L7.6791 11.0556C7.56245 10.9406 7.50278 10.7961 7.50009 10.622C7.49738 10.4479 7.55705 10.3007 7.6791 10.1804C7.80113 10.0601 7.94909 10 8.12296 10C8.29683 10 8.44479 10.0601 8.56682 10.1804L11.998 13.5628L15.4292 10.1804C15.5458 10.0655 15.6924 10.0067 15.869 10.004C16.0456 10.0013 16.1949 10.0601 16.3169 10.1804C16.439 10.3007 16.5 10.4466 16.5 10.618C16.5 10.7894 16.439 10.9353 16.3169 11.0556L12.531 14.7876C12.4521 14.8653 12.369 14.9201 12.2815 14.9521C12.194 14.984 12.0995 15 11.998 15Z" fill="#007BFF"/>
</g>
</svg>
