<svg width="24" height="24" viewBox="0 0 24 24" fill="none" xmlns="http://www.w3.org/2000/svg">
<mask id="mask0_2903_4306" style="mask-type:alpha" maskUnits="userSpaceOnUse" x="0" y="0" width="24" height="24">
<rect width="24" height="24" fill="#D9D9D9"/>
</mask>
<g mask="url(#mask0_2903_4306)">
<path d="M11.498 15C11.3965 15 11.302 14.984 11.2145 14.9521C11.127 14.9201 11.0439 14.8653 10.965 14.7876L7.1791 11.0556C7.06245 10.9406 7.00278 10.7961 7.00009 10.622C6.99738 10.4479 7.05705 10.3007 7.1791 10.1804C7.30113 10.0601 7.44909 10 7.62296 10C7.79683 10 7.94479 10.0601 8.06682 10.1804L11.498 13.5628L14.9292 10.1804C15.0458 10.0655 15.1924 10.0067 15.369 10.004C15.5456 10.0013 15.6949 10.0601 15.8169 10.1804C15.939 10.3007 16 10.4466 16 10.618C16 10.7894 15.939 10.9353 15.8169 11.0556L12.031 14.7876C11.9521 14.8653 11.869 14.9201 11.7815 14.9521C11.694 14.984 11.5995 15 11.498 15Z" fill="#080E14"/>
</g>
</svg>
