<svg width="28" height="29" viewBox="0 0 28 29" fill="none" xmlns="http://www.w3.org/2000/svg">
<path d="M12.8066 11.8066C12.8857 11.5494 12.8462 11.2923 12.7275 11.055L11.0067 7.03979L10.9869 7.00024C10.8683 6.76289 10.6507 6.60465 10.3936 6.52554C10.1364 6.44642 9.85954 6.48598 9.64197 6.60465L7.66405 7.69251C7.60471 7.73206 7.5256 7.77162 7.46626 7.83096C6.93222 8.32544 6.85311 9.37373 7.24869 10.9956C7.58493 12.4395 8.29698 14.0614 9.14749 15.4262C9.7013 16.336 10.7892 17.7997 11.9363 18.9468C13.1231 20.1138 14.5868 21.1621 15.9515 21.8346C16.9009 22.2895 17.6723 22.5071 18.2657 22.5071C18.6019 22.5071 18.8788 22.428 19.0964 22.2697C19.1755 22.2104 19.2349 22.1511 19.2744 22.1115L20.7578 20.4105C21.1139 19.9951 21.0743 19.3622 20.659 19.0062L17.0789 16.4349C16.8811 16.2767 16.624 16.1975 16.3669 16.1975C16.1097 16.2173 15.8724 16.336 15.6944 16.5338L14.7054 17.503C14.6263 17.4832 14.4879 17.3843 14.211 17.1667C14.1912 17.1469 14.1714 17.1272 14.1714 17.1074L14.1516 17.0876C14.1516 17.0876 13.6769 16.6129 12.8264 15.5448C11.9957 14.5163 11.8177 14.1998 11.8177 14.1998L11.7781 14.1405C11.7781 14.1207 11.7583 14.1207 11.7583 14.101C11.3825 13.5274 11.2836 13.2504 11.2441 13.1318L12.3715 12.3999C12.5693 12.2615 12.7473 12.0439 12.8066 11.8066ZM12.055 11.5692C12.055 11.6088 12.0155 11.6681 11.9561 11.6879L10.71 12.4988C10.5716 12.578 10.4925 12.6966 10.4529 12.8549C10.3936 13.0922 10.4134 13.4878 11.0858 14.5163C11.1056 14.5361 11.1254 14.5757 11.1452 14.5954C11.2045 14.7141 11.4616 15.0899 12.2133 16.0393C13.0242 17.048 13.4989 17.5425 13.578 17.6216C13.6176 17.6612 13.6571 17.7205 13.6967 17.7601C14.1516 18.1755 14.5076 18.3337 14.8043 18.3139C14.9626 18.2941 15.1208 18.2348 15.2197 18.1161L16.268 17.0876L16.2878 17.0678C16.3273 17.0085 16.4064 17.0085 16.4262 16.9887C16.4658 16.9887 16.5251 16.9887 16.5844 17.048L20.1645 19.5996C20.2436 19.6787 20.2436 19.7973 20.1843 19.8765L18.6613 21.5972C18.6415 21.617 18.6415 21.617 18.6217 21.6368C18.5426 21.6961 18.0283 21.9533 16.2878 21.1028C15.0021 20.4896 13.6176 19.4809 12.4902 18.3732C11.4419 17.3447 10.3738 15.9404 9.8002 15.0108C8.98925 13.7054 8.31676 12.1824 8.0003 10.8176C7.54538 8.93859 7.9014 8.48367 7.98052 8.42433C8.0003 8.40456 8.0003 8.40456 8.02008 8.40456L9.99799 7.3167C10.0375 7.29692 10.0771 7.29692 10.0969 7.29692C10.1167 7.29692 10.1364 7.29692 10.1562 7.29692C10.176 7.29692 10.2353 7.33648 10.2749 7.37604L11.9957 11.3912L12.0155 11.4308C12.0748 11.4901 12.055 11.5494 12.055 11.5692Z" fill="#080E14"/>
</svg>
