<svg width="24" height="28" viewBox="0 0 24 28" fill="none" xmlns="http://www.w3.org/2000/svg">
<path d="M23.0174 0H0.98257C0.721987 0 0.472076 0.107015 0.287816 0.297501C0.103556 0.487987 4.00938e-05 0.746341 4.00938e-05 1.01573V19.5697C-0.00147508 19.7408 0.0399781 19.9094 0.120347 20.0589C0.200716 20.2085 0.317249 20.3339 0.458554 20.4229L11.476 27.6278C11.6317 27.7333 11.8138 27.7895 12 27.7895C12.1862 27.7895 12.3683 27.7333 12.524 27.6278L23.5414 20.4229C23.6827 20.3339 23.7993 20.2085 23.8797 20.0589C23.96 19.9094 24.0015 19.7408 24 19.5697V1.01573C24 0.746341 23.8964 0.487987 23.7122 0.297501C23.5279 0.107015 23.278 0 23.0174 0Z" fill="#007BFF"/>
<path d="M7.88152 13.17L7.30008 16.4738C7.26555 16.6647 7.28797 16.861 7.36479 17.0405C7.44162 17.2199 7.56977 17.3753 7.73473 17.489C7.89969 17.6027 8.09484 17.6701 8.29807 17.6837C8.50129 17.6973 8.70445 17.6565 8.88451 17.5658L11.9952 16.0176L15.1059 17.5658C15.263 17.643 15.438 17.681 15.6147 17.6764C15.8448 17.6826 16.0702 17.6143 16.2543 17.4829C16.4184 17.3698 16.5462 17.2155 16.6232 17.0373C16.7002 16.859 16.7235 16.6639 16.6904 16.4738L16.1089 13.17L18.6236 10.8338C18.7672 10.6971 18.8677 10.5251 18.914 10.337C18.9602 10.149 18.9503 9.95236 18.8853 9.76937C18.8244 9.5857 18.7103 9.4221 18.556 9.29739C18.4017 9.17267 18.2136 9.0919 18.0131 9.06437L14.539 8.58055L12.9691 5.58085C12.8686 5.42046 12.726 5.28764 12.5553 5.19541C12.3846 5.10318 12.1916 5.05469 11.9952 5.05469C11.7989 5.05469 11.6059 5.10318 11.4352 5.19541C11.2644 5.28764 11.1218 5.42046 11.0213 5.58085L9.45142 8.58055L5.9773 9.06437C5.77689 9.0919 5.58871 9.17267 5.43443 9.29739C5.28014 9.4221 5.166 9.5857 5.10514 9.76937C5.04017 9.95236 5.03024 10.149 5.07647 10.337C5.1227 10.5251 5.22325 10.6971 5.36679 10.8338L7.88152 13.17Z" fill="white"/>
</svg>
