<svg width="24" height="24" viewBox="0 0 24 24" fill="none" xmlns="http://www.w3.org/2000/svg">
<circle cx="12" cy="12" r="12" fill="black"/>
<path d="M16.5129 8.98529C16.3898 8.98506 16.2691 9.02176 16.1643 9.09127C16.0595 9.16078 15.9747 9.26036 15.9195 9.37885C15.8642 9.49734 15.8407 9.63006 15.8516 9.76213C15.8624 9.89421 15.9072 10.0204 15.9809 10.1266L14.6233 11.2112C14.5309 11.2856 14.4255 11.3389 14.3133 11.3679C14.2012 11.3968 14.0848 11.4008 13.9712 11.3795C13.8576 11.3582 13.7492 11.3121 13.6527 11.2441C13.5562 11.1761 13.4737 11.0875 13.4101 10.9839L12.3827 9.31633C12.5013 9.23145 12.5913 9.10773 12.6394 8.96347C12.6876 8.81921 12.6914 8.66208 12.6503 8.51532C12.6091 8.36855 12.5252 8.23996 12.4109 8.14856C12.2967 8.05716 12.1581 8.00781 12.0158 8.00781C11.8735 8.00781 11.735 8.05716 11.6207 8.14856C11.5065 8.23996 11.4226 8.36855 11.3814 8.51532C11.3402 8.66208 11.344 8.81921 11.3922 8.96347C11.4404 9.10773 11.5304 9.23145 11.6489 9.31633L10.6215 10.9839C10.558 11.0875 10.4754 11.1761 10.3789 11.2441C10.2825 11.3121 10.1741 11.3582 10.0605 11.3795C9.94689 11.4008 9.83045 11.3968 9.71831 11.3679C9.60618 11.3389 9.50072 11.2856 9.40841 11.2112L8.05081 10.1266C8.13958 9.99752 8.18532 9.83991 8.18064 9.67932C8.17596 9.51872 8.12113 9.36452 8.02502 9.24166C7.92891 9.11879 7.79714 9.03444 7.65102 9.00224C7.50489 8.97004 7.35296 8.99189 7.21979 9.06424C7.08662 9.13659 6.97999 9.25521 6.91715 9.40093C6.85432 9.54665 6.83895 9.71094 6.87353 9.86724C6.9081 10.0235 6.99061 10.1627 7.1077 10.2622C7.22479 10.3617 7.36963 10.4158 7.51878 10.4157C7.5516 10.4182 7.58456 10.4182 7.61739 10.4157L8.154 14.2696C8.1791 14.436 8.25845 14.5874 8.37781 14.6965C8.49718 14.8057 8.64874 14.8654 8.80529 14.8649H15.2264C15.3847 14.8656 15.5379 14.8048 15.6579 14.6936C15.778 14.5824 15.8568 14.4284 15.8799 14.2597L16.4166 10.4058C16.4494 10.4083 16.4824 10.4083 16.5152 10.4058C16.6845 10.3951 16.8436 10.315 16.96 10.1821C17.0764 10.0492 17.1412 9.87333 17.1412 9.6906C17.1412 9.50787 17.0764 9.33205 16.96 9.1991C16.8436 9.06615 16.6845 8.98613 16.5152 8.97541L16.5129 8.98529Z" fill="#FFE999"/>
</svg>
