<svg width="28" height="29" viewBox="0 0 28 29" fill="none" xmlns="http://www.w3.org/2000/svg">
<path d="M14.1587 6.48438C10.8534 6.48438 8.16504 9.17274 8.16504 12.4781C8.16504 13.6699 8.53151 14.5987 9.11447 15.5072L13.81 22.8249C13.8473 22.8836 13.8988 22.9319 13.9598 22.9654C14.0208 22.9989 14.0892 23.0164 14.1587 23.0164C14.2283 23.0164 14.2967 22.9989 14.3577 22.9654C14.4186 22.9319 14.4702 22.8836 14.5075 22.8249L19.203 15.5072C19.786 14.5987 20.1524 13.6699 20.1524 12.4781C20.1524 9.17274 17.4641 6.48438 14.1587 6.48438ZM14.1587 7.31109C17.0173 7.31109 19.3257 9.61953 19.3257 12.4781C19.3257 13.5078 19.0387 14.2305 18.5054 15.0616L14.1587 21.8368L9.81201 15.0616C9.27879 14.2305 8.99176 13.5078 8.99176 12.4781C8.99176 9.61953 11.3002 7.31109 14.1587 7.31109ZM14.1587 9.58456C12.5656 9.58456 11.2652 10.8849 11.2652 12.4781C11.2652 14.0712 12.5656 15.3716 14.1587 15.3716C15.7519 15.3716 17.0522 14.0712 17.0522 12.4781C17.0522 10.8849 15.7519 9.58456 14.1587 9.58456ZM14.1587 10.4113C15.3051 10.4113 16.2255 11.3317 16.2255 12.4781C16.2255 13.6244 15.3051 14.5449 14.1587 14.5449C13.0124 14.5449 12.0919 13.6244 12.0919 12.4781C12.0919 11.3317 13.0124 10.4113 14.1587 10.4113Z" fill="#080E14"/>
</svg>
