<svg width="53" height="40" viewBox="0 0 53 40" fill="none" xmlns="http://www.w3.org/2000/svg">
<path d="M16.9696 18.1818L2.4241 18.1818L2.4241 15.7576C2.4241 8.40563 8.40557 2.4243 15.7575 2.4243L15.7575 1.37756e-06C7.06898 6.1799e-07 -6.18001e-07 7.06911 -1.37757e-06 15.7576L-1.58951e-06 18.1818L-1.69547e-06 19.3939L-3.07304e-06 35.1515C-3.30682e-06 37.8256 2.17436 40 4.84847 40L16.9696 40C19.6437 40 21.8181 37.8256 21.8181 35.1515L21.8181 23.0304C21.8181 20.3563 19.6437 18.1818 16.9696 18.1818Z" fill="#FCDE5A"/>
<path d="M47.2665 18.1818L32.7211 18.1818L32.7211 15.7576C32.7211 8.40563 38.7024 2.4243 46.0545 2.4243L46.0545 1.37757e-06C37.366 6.18001e-07 30.2969 7.06911 30.2969 15.7576L30.2969 18.1818L30.2969 19.3939L30.2969 35.1515C30.2969 37.8256 32.4712 40 35.1453 40L47.2665 40C49.9406 40 52.115 37.8256 52.115 35.1515L52.115 23.0304C52.115 20.3563 49.9406 18.1818 47.2665 18.1818Z" fill="#FCDE5A"/>
</svg>
