<svg width="81" height="55" viewBox="0 0 81 55" fill="none" xmlns="http://www.w3.org/2000/svg">
<path d="M0.00786895 25.9557C0.00786895 25.8534 0.0393342 25.7669 0.102272 25.6961C0.165211 25.6253 0.259617 25.5859 0.377626 25.5859H2.85582C2.94236 25.5859 3.0289 25.6174 3.12331 25.6882C3.21772 25.759 3.26492 25.8456 3.26492 25.9557V37.733C3.26492 37.9769 3.12331 38.1028 2.84795 38.1028H0.369763C0.125877 38.1028 0 37.9769 0 37.733V25.9557H0.00786895Z" fill="#00364E"/>
<path d="M5.01704 27.549C5.08785 27.4861 5.16652 27.4467 5.2452 27.431C5.32387 27.4153 5.40254 27.4074 5.48122 27.4074H6.75571C6.85799 27.4074 6.94453 27.4231 7.01533 27.4625C7.08614 27.5018 7.14907 27.549 7.20415 27.612C7.25135 27.6749 7.29856 27.7457 7.33002 27.8244C7.36149 27.903 7.39296 27.9817 7.41657 28.0683L7.58965 28.8078C7.67619 28.6347 7.80993 28.4537 7.99874 28.2728C8.18756 28.084 8.42357 27.9188 8.69893 27.7693C8.97428 27.6198 9.29684 27.4939 9.66661 27.3917C10.0285 27.2973 10.4376 27.2422 10.886 27.2422C11.5311 27.2422 12.0976 27.3681 12.6011 27.612C13.1046 27.8558 13.5294 28.1941 13.8835 28.619C14.2375 29.0438 14.505 29.5394 14.6859 30.1137C14.8669 30.6802 14.9613 31.2938 14.9613 31.9389V37.4618C14.9613 37.6742 14.9141 37.8394 14.8197 37.9495C14.7253 38.0597 14.5758 38.1148 14.3791 38.1148H12.428C12.1841 38.1148 12.0189 38.0754 11.9324 37.9967C11.8458 37.9181 11.7986 37.7529 11.7986 37.5247V32.0412C11.7986 31.7973 11.7436 31.5692 11.6334 31.3568C11.5233 31.1444 11.3817 30.9477 11.2007 30.7825C11.0198 30.6172 10.8152 30.4835 10.5871 30.3891C10.3589 30.2947 10.1308 30.2475 9.89476 30.2475C9.69021 30.2475 9.48566 30.2947 9.27324 30.3812C9.06083 30.4678 8.87201 30.5936 8.69107 30.7589C8.51799 30.9162 8.3685 31.105 8.24262 31.3253C8.12462 31.5377 8.05381 31.7737 8.03808 32.0255V37.5011C8.03808 37.5955 8.02235 37.6899 7.98301 37.7843C7.94367 37.8787 7.8886 37.9496 7.8178 38.0046C7.74699 38.0518 7.67619 38.0833 7.61325 38.099C7.55031 38.1148 7.47164 38.1226 7.39296 38.1226H5.48908C5.24519 38.1226 5.07212 38.0597 4.96984 37.9495C4.8597 37.8315 4.8125 37.6742 4.8125 37.4775V28.0525C4.8125 27.9424 4.8361 27.848 4.8833 27.7614C4.93051 27.6749 4.99344 27.6041 5.07998 27.549L5.03278 27.5726L5.01704 27.549Z" fill="#00364E"/>
<path d="M17.1591 27.5499C17.1591 27.0307 17.2692 26.535 17.4974 26.0787C17.7255 25.6145 18.0245 25.2133 18.4021 24.8672C18.7797 24.521 19.2124 24.2456 19.7002 24.049C20.188 23.8523 20.6993 23.75 21.2343 23.75H21.3995C21.5883 23.75 21.7378 23.8051 21.8401 23.9231C21.9424 24.0411 21.9974 24.1984 21.9974 24.403V26.0158C21.9974 26.2203 21.9424 26.3934 21.8322 26.535C21.7221 26.6688 21.5805 26.7396 21.3995 26.7396H21.2343C21.1163 26.7396 21.0062 26.7632 20.896 26.8025C20.7859 26.8418 20.6915 26.9048 20.6128 26.9756C20.5263 27.0464 20.4633 27.1329 20.4082 27.2352C20.361 27.3296 20.3296 27.4397 20.3296 27.5578V28.5254H21.6513C21.8401 28.5254 21.9896 28.5805 22.0918 28.6828C22.1941 28.7851 22.2492 28.9503 22.2492 29.1784V30.7204C22.2492 30.9643 22.1941 31.1374 22.0918 31.2475C21.9896 31.3577 21.8401 31.4127 21.6513 31.4127H20.3296V37.4548C20.3296 37.6672 20.2588 37.8324 20.1172 37.9426C19.9755 38.0527 19.8182 38.1078 19.6451 38.1078H17.8199C17.6154 38.1078 17.458 38.0448 17.3321 37.919C17.2141 37.7931 17.1512 37.6357 17.1512 37.4627V31.4206H16.2858C16.0891 31.4206 15.9318 31.3655 15.8138 31.2554C15.6957 31.1452 15.6328 30.9643 15.6328 30.7204V29.1784C15.6328 28.9503 15.6957 28.7929 15.8138 28.6828C15.9318 28.5805 16.0891 28.5254 16.2858 28.5254H17.1512V27.5578L17.1591 27.5499Z" fill="#00364E"/>
<path d="M22.8281 23.7936C22.8281 23.5576 22.8753 23.3924 22.9776 23.2901C23.0799 23.1957 23.2372 23.1406 23.4496 23.1406H25.4086C25.6053 23.1406 25.7626 23.1878 25.8885 23.2901C26.0065 23.3924 26.0694 23.5576 26.0694 23.7936V25.4379C26.0694 25.5087 26.0537 25.5795 26.0222 25.6581C25.9908 25.7368 25.9514 25.8155 25.8885 25.8863C25.8334 25.9571 25.7626 26.02 25.6839 26.0673C25.6053 26.1145 25.5109 26.1381 25.4086 26.1381H23.4496C23.0327 26.1381 22.8281 25.902 22.8281 25.4379V23.7936ZM22.8281 28.0577C22.8281 27.8767 22.8753 27.7194 22.9776 27.5935C23.0799 27.4676 23.2372 27.3968 23.4496 27.3968H25.3771C25.4479 27.3968 25.5187 27.4126 25.5974 27.444C25.6761 27.4755 25.7469 27.5227 25.8177 27.5778C25.8885 27.6328 25.9436 27.7036 25.9908 27.7823C26.038 27.861 26.0616 27.9475 26.0616 28.0498V37.4433C26.0616 37.6557 26.0065 37.821 25.8885 37.9311C25.7705 38.0412 25.6053 38.0963 25.385 38.0963H23.4575C23.0405 38.0963 22.836 37.8839 22.836 37.4512V28.0577H22.8281Z" fill="#00364E"/>
<path d="M27.2436 27.549C27.3144 27.4861 27.393 27.4467 27.4717 27.431C27.5504 27.4153 27.6291 27.4074 27.7077 27.4074H28.9822C29.0845 27.4074 29.171 27.4231 29.2418 27.4625C29.3126 27.5018 29.3756 27.549 29.4307 27.612C29.4779 27.6749 29.5251 27.7457 29.5565 27.8244C29.588 27.903 29.6195 27.9817 29.6431 28.0683L29.824 28.8078C29.9106 28.6347 30.0443 28.4537 30.2331 28.2728C30.4219 28.084 30.6579 27.9188 30.9333 27.7693C31.2087 27.6198 31.5312 27.4939 31.901 27.3917C32.2629 27.2973 32.672 27.2422 33.1204 27.2422C33.7577 27.2422 34.332 27.3681 34.8355 27.612C35.339 27.8558 35.7638 28.1941 36.1178 28.619C36.4719 29.0438 36.7394 29.5394 36.9203 30.1137C37.1012 30.6802 37.1957 31.2938 37.1957 31.9389V37.4618C37.1957 37.6742 37.1484 37.8394 37.054 37.9495C36.9596 38.0597 36.8102 38.1148 36.6135 38.1148H34.6624C34.4185 38.1148 34.2533 38.0754 34.1668 37.9967C34.0802 37.9181 34.033 37.7529 34.033 37.5247V32.0412C34.033 31.7973 33.9779 31.5692 33.8678 31.3568C33.7577 31.1444 33.616 30.9477 33.4351 30.7825C33.2541 30.6172 33.0496 30.4835 32.8214 30.3891C32.5933 30.2947 32.3651 30.2475 32.1291 30.2475C31.9246 30.2475 31.72 30.2947 31.5076 30.3812C31.2952 30.4678 31.1064 30.5936 30.9254 30.7589C30.7445 30.9162 30.595 31.105 30.477 31.3253C30.359 31.5456 30.2882 31.7737 30.2725 32.0255V37.5011C30.2725 37.5955 30.2567 37.6899 30.2174 37.7843C30.178 37.8787 30.123 37.9496 30.0522 38.0046C29.9814 38.0518 29.9106 38.0833 29.8476 38.099C29.7847 38.1148 29.706 38.1226 29.6273 38.1226H27.7235C27.4796 38.1226 27.3065 38.0597 27.2042 37.9495C27.0941 37.8315 27.0469 37.6742 27.0469 37.4775V28.0525C27.0469 27.9424 27.0705 27.848 27.1177 27.7614C27.1649 27.6749 27.2357 27.6041 27.3144 27.549L27.2672 27.5726L27.2436 27.549Z" fill="#00364E"/>
<path d="M38.3594 23.7936C38.3594 23.5576 38.4066 23.3924 38.5089 23.2901C38.6111 23.1957 38.7685 23.1406 38.9809 23.1406H40.9398C41.1365 23.1406 41.2939 23.1878 41.4197 23.2901C41.5378 23.3924 41.6007 23.5576 41.6007 23.7936V25.4379C41.6007 25.5087 41.585 25.5795 41.5535 25.6581C41.522 25.7368 41.4748 25.8155 41.4197 25.8863C41.3647 25.9571 41.2939 26.02 41.2152 26.0673C41.1365 26.1145 41.0421 26.1381 40.9398 26.1381H38.9809C38.5639 26.1381 38.3594 25.902 38.3594 25.4379V23.7936ZM38.3594 28.0577C38.3594 27.8767 38.4066 27.7194 38.5089 27.5935C38.6111 27.4676 38.7685 27.3968 38.9809 27.3968H40.9162C40.987 27.3968 41.0578 27.4126 41.1365 27.444C41.2152 27.4755 41.286 27.5227 41.3568 27.5778C41.4276 27.6328 41.4827 27.7036 41.5299 27.7823C41.5771 27.861 41.6007 27.9475 41.6007 28.0498V37.4433C41.6007 37.6557 41.5377 37.821 41.4276 37.9311C41.3096 38.0412 41.1444 38.0963 40.9241 38.0963H38.9966C38.5797 38.0963 38.3751 37.8839 38.3751 37.4512V28.0577H38.3594Z" fill="#00364E"/>
<path d="M43.6435 25.728C43.6435 25.5549 43.6986 25.4211 43.8166 25.3346C43.9346 25.2481 44.0998 25.1615 44.3122 25.0828L46.224 24.4141C46.224 24.4141 46.279 24.4062 46.3026 24.4062H46.3734C46.578 24.4062 46.7196 24.4692 46.7904 24.5872C46.8612 24.7052 46.8927 24.8704 46.8927 25.0671V27.388H48.0413C48.2222 27.388 48.3639 27.443 48.4819 27.5453C48.592 27.6554 48.6471 27.8128 48.6471 28.0252V29.6537C48.6471 29.8897 48.592 30.0628 48.4819 30.173C48.3717 30.2831 48.2222 30.3382 48.0413 30.3382H46.8848V37.4502C46.8927 37.6626 46.8297 37.8278 46.7117 37.938C46.5859 38.0481 46.4128 38.1032 46.2004 38.1032H44.2965C43.8638 38.1032 43.6435 37.8908 43.6435 37.4581V30.346H42.7624C42.3297 30.346 42.1094 30.1179 42.1094 29.6616V28.0331C42.1094 27.6082 42.3218 27.3958 42.7624 27.3958H43.6278V25.7358L43.6435 25.728Z" fill="#00364E"/>
<path d="M0.015625 42.3151C0.015625 42.2128 0.0470979 42.1263 0.117903 42.0555C0.188709 41.9846 0.275248 41.9453 0.393257 41.9453H2.88718C2.98159 41.9453 3.06813 41.9768 3.1468 42.0476C3.22547 42.1184 3.26481 42.2049 3.27268 42.3151V51.4883H7.91437C8.01664 51.4883 8.10318 51.5198 8.17399 51.5906C8.24479 51.6614 8.28413 51.7479 8.28413 51.8659V54.0845C8.28413 54.1789 8.25266 54.2655 8.18972 54.3441C8.12678 54.4228 8.03238 54.4621 7.91437 54.47H0.385388C0.141502 54.47 0.015625 54.3441 0.015625 54.1002V42.3151Z" fill="#3282C5"/>
<path d="M18.0414 53.184C17.5457 53.6403 16.9871 53.9943 16.3735 54.254C15.752 54.5057 15.099 54.6395 14.4067 54.6395C13.6357 54.6395 12.9119 54.4978 12.2196 54.2146C11.5351 53.9314 10.9293 53.5459 10.418 53.0503C9.89873 52.5546 9.48963 51.9646 9.19068 51.2959C8.88385 50.6193 8.73438 49.8876 8.73438 49.093C8.73438 48.5974 8.79732 48.1175 8.91532 47.6533C9.03333 47.1891 9.20641 46.7564 9.42669 46.3473C9.64698 45.9461 9.92234 45.5685 10.237 45.2302C10.5517 44.8919 10.9057 44.6008 11.307 44.3569C11.7003 44.113 12.1252 43.9242 12.5893 43.7905C13.0535 43.6567 13.5334 43.5859 14.0448 43.5859C14.509 43.5859 14.9653 43.6489 15.4058 43.7747C15.8464 43.9006 16.2555 44.0737 16.641 44.294C17.0265 44.5221 17.3805 44.7896 17.7031 45.1043C18.0256 45.419 18.301 45.7652 18.5291 46.1349C18.7573 46.5047 18.9382 46.9059 19.0641 47.3308C19.19 47.7556 19.2529 48.1883 19.2529 48.6446C19.2529 48.9357 19.2529 49.1717 19.2372 49.3605C19.2372 49.5415 19.1821 49.6909 19.1034 49.8011C19.0248 49.9112 18.891 49.9899 18.7101 50.0292C18.5291 50.0686 18.2616 50.0922 17.9076 50.0922H11.8341C11.8892 50.4541 12.0072 50.753 12.1724 50.9969C12.3455 51.2408 12.5421 51.4296 12.7703 51.5712C12.9984 51.7128 13.2345 51.8151 13.4862 51.878C13.738 51.941 13.9818 51.9725 14.2021 51.9725C14.4067 51.9725 14.6112 51.9488 14.8236 51.9095C15.0361 51.8702 15.2406 51.8151 15.4452 51.7443C15.6418 51.6735 15.8307 51.5948 15.9959 51.5004C16.1611 51.406 16.2948 51.3116 16.3971 51.2093C16.4836 51.1385 16.5623 51.0834 16.6252 51.0441C16.6882 51.0048 16.759 50.989 16.8298 50.989C16.9006 50.989 16.9793 51.0126 17.0501 51.0677C17.1288 51.1149 17.2153 51.1936 17.3097 51.288L18.2066 52.3029C18.2695 52.3737 18.3088 52.4445 18.3246 52.4996C18.3403 52.5546 18.3482 52.6176 18.3482 52.6805C18.3482 52.7906 18.3167 52.8929 18.2538 52.9716C18.1908 53.0503 18.12 53.1289 18.0335 53.184H18.0414ZM13.9818 46.1664C13.7616 46.1664 13.5491 46.2136 13.3446 46.3001C13.14 46.3867 12.9434 46.5047 12.7703 46.6542C12.5893 46.8036 12.432 46.9689 12.2825 47.1498C12.1409 47.3386 12.0229 47.5274 11.9364 47.7163H16.2476C16.1296 47.496 16.0037 47.2914 15.8621 47.1105C15.7205 46.9217 15.5632 46.7643 15.3901 46.6227C15.217 46.4811 15.0125 46.371 14.7843 46.2923C14.5562 46.2136 14.2887 46.1743 13.9897 46.1743L13.9818 46.1664Z" fill="#3282C5"/>
<path d="M31.1805 53.8449C31.1805 53.9393 31.1648 54.0337 31.1333 54.1202C31.1018 54.2068 31.0468 54.2776 30.9681 54.3248C30.9051 54.3877 30.8343 54.427 30.7478 54.4428C30.6613 54.4585 30.5904 54.4664 30.5275 54.4664H28.8675C28.7495 54.4664 28.6551 54.4506 28.5843 54.4192C28.5135 54.3877 28.4506 54.3484 28.4033 54.2854C28.3561 54.2304 28.3168 54.1596 28.2853 54.0809C28.2539 54.0022 28.2224 53.9078 28.1909 53.8134L28.0808 53.4358C27.9313 53.5852 27.7582 53.7347 27.5615 53.8842C27.3649 54.0337 27.1524 54.1596 26.9243 54.2776C26.6883 54.3956 26.4444 54.49 26.1769 54.5529C25.9094 54.6237 25.6341 54.6552 25.343 54.6552C24.8316 54.6552 24.3438 54.5923 23.8718 54.4585C23.3998 54.3326 22.9671 54.1438 22.558 53.9078C22.1489 53.6718 21.7791 53.3807 21.4487 53.0503C21.1182 52.712 20.835 52.3422 20.5911 51.9331C20.3551 51.524 20.1663 51.0835 20.0404 50.6036C19.9146 50.1315 19.8438 49.6359 19.8438 49.1166C19.8438 48.3378 19.9854 47.6061 20.2765 46.9374C20.5597 46.2687 20.953 45.6786 21.4487 45.183C21.9443 44.6874 22.5265 44.294 23.1952 44.0108C23.8639 43.7276 24.5799 43.5859 25.343 43.5859C25.6891 43.5859 26.0196 43.6253 26.3185 43.704C26.6175 43.7826 26.8928 43.8928 27.1446 44.0265C27.3963 44.1603 27.6166 44.3255 27.8212 44.5143C28.0257 44.7031 28.1988 44.9076 28.3561 45.1279L28.6 44.3648C28.6551 44.2232 28.7023 44.1131 28.7416 44.0265C28.781 43.94 28.8203 43.877 28.8596 43.8298C28.899 43.7905 28.9541 43.759 29.017 43.7433C29.0799 43.7276 29.1665 43.7197 29.2766 43.7197H30.5354C30.5983 43.7197 30.6691 43.7276 30.7557 43.7433C30.8422 43.759 30.913 43.7984 30.9759 43.8613C31.0546 43.9242 31.1097 43.995 31.1412 44.0737C31.1726 44.1524 31.1884 44.2389 31.1884 44.3412V53.837L31.1805 53.8449ZM22.8727 49.1245C22.8727 49.4943 22.9277 49.8404 23.0457 50.163C23.1637 50.4855 23.329 50.7688 23.5414 51.0048C23.7538 51.2408 24.0134 51.4296 24.3124 51.5634C24.6113 51.705 24.9496 51.7679 25.3115 51.7679C25.6734 51.7679 26.0353 51.6971 26.3579 51.5634C26.6804 51.4296 26.9636 51.2408 27.1997 51.0048C27.4357 50.7688 27.6245 50.4934 27.7582 50.163C27.892 49.8404 27.9628 49.4943 27.9628 49.1245C27.9628 48.7547 27.892 48.4243 27.7582 48.0939C27.6245 47.7713 27.4357 47.4802 27.1997 47.2364C26.9636 46.9925 26.6804 46.7958 26.3579 46.6542C26.0353 46.5126 25.6813 46.4418 25.3115 46.4418C24.9417 46.4418 24.6113 46.5126 24.3124 46.6542C24.0134 46.7958 23.7538 46.9925 23.5414 47.2364C23.329 47.4802 23.1637 47.7713 23.0457 48.0939C22.9277 48.4165 22.8727 48.7626 22.8727 49.1245Z" fill="#3282C5"/>
<path d="M32.3672 44.3883C32.3672 44.286 32.3908 44.1916 32.4301 44.1129C32.4695 44.0343 32.5245 43.9713 32.5875 43.9163C32.6504 43.8691 32.7212 43.8297 32.8078 43.8061C32.8864 43.7825 32.973 43.7668 33.0516 43.7668H34.3261C34.4677 43.7668 34.5779 43.8061 34.6644 43.8926C34.751 43.9792 34.8218 44.0815 34.8768 44.2152C34.9319 44.3411 34.987 44.4906 35.0342 44.6479C35.0814 44.8053 35.1365 44.9547 35.1915 45.1042C35.3567 44.9154 35.5298 44.7345 35.695 44.5535C35.8603 44.3726 36.0412 44.2152 36.23 44.0736C36.4188 43.932 36.6312 43.8218 36.8594 43.7353C37.0875 43.6488 37.3472 43.6016 37.6383 43.6016C37.9293 43.6016 38.2126 43.6252 38.4486 43.6724C38.6846 43.7196 38.9128 43.7825 39.1252 43.869C39.3376 43.9556 39.55 44.0657 39.7624 44.1995C39.9748 44.3332 40.203 44.4906 40.4469 44.6715C40.6908 44.8131 40.8088 44.9783 40.8088 45.1672C40.8088 45.293 40.7616 45.4346 40.6672 45.5999L39.8962 46.9058C39.7467 47.1261 39.5579 47.2362 39.3297 47.2362C39.2196 47.2362 39.0937 47.2048 38.9521 47.1418C38.7082 46.9058 38.4643 46.7327 38.2126 46.6147C37.9608 46.4967 37.6776 46.4416 37.355 46.4416C37.1348 46.4416 36.9459 46.4731 36.7807 46.5361C36.6155 46.599 36.466 46.6855 36.3323 46.7957C36.1985 46.9058 36.0727 47.0396 35.9547 47.1969C35.8367 47.3543 35.7186 47.5273 35.6006 47.7161V53.8212C35.6006 54.0336 35.5456 54.1988 35.4433 54.3089C35.341 54.4191 35.1679 54.4741 34.9241 54.4741H33.028C32.5875 54.4741 32.3672 54.2617 32.3672 53.829V44.3962V44.3883Z" fill="#3282C5"/>
<path d="M41.4389 43.9084C41.5097 43.8455 41.5884 43.8061 41.6749 43.7904C41.7536 43.7746 41.8323 43.7668 41.9031 43.7668H43.1776C43.2799 43.7668 43.3664 43.7825 43.4372 43.8219C43.508 43.8612 43.571 43.9084 43.626 43.9713C43.6732 44.0343 43.7204 44.1051 43.7519 44.1837C43.7834 44.2624 43.8148 44.3411 43.8384 44.4276L44.0115 45.1672C44.0981 44.9941 44.2318 44.8131 44.4206 44.6322C44.6094 44.4434 44.8455 44.2782 45.1208 44.1287C45.3962 43.9792 45.7187 43.8533 46.0885 43.751C46.4504 43.6566 46.8595 43.6016 47.3079 43.6016C47.9452 43.6016 48.5195 43.7274 49.023 43.9713C49.5265 44.2152 49.9513 44.5535 50.3053 44.9783C50.6594 45.4032 50.9269 45.8988 51.1078 46.4731C51.2888 47.0396 51.3832 47.6532 51.3832 48.2983V53.8212C51.3832 54.0336 51.336 54.1988 51.2415 54.3089C51.1471 54.4191 50.9977 54.4741 50.801 54.4741H48.8499C48.606 54.4741 48.4408 54.4348 48.3543 54.3483C48.2677 54.2696 48.2205 54.1044 48.2205 53.8762V48.3927C48.2205 48.1489 48.1654 47.9207 48.0553 47.7083C47.9452 47.4959 47.8035 47.2992 47.6226 47.134C47.4416 46.9688 47.2371 46.835 47.0089 46.7406C46.7808 46.6462 46.5527 46.599 46.3166 46.599C46.1121 46.599 45.9075 46.6462 45.6951 46.7327C45.4827 46.8193 45.286 46.9452 45.1129 47.1104C44.9399 47.2677 44.7904 47.4565 44.6645 47.6768C44.5465 47.8892 44.4757 48.1252 44.46 48.377V53.8526C44.46 53.947 44.4442 54.0414 44.4049 54.1359C44.3655 54.2303 44.3105 54.3011 44.2397 54.3561C44.1689 54.4033 44.0981 54.4348 44.0351 54.4505C43.9722 54.4663 43.8935 54.4741 43.8148 54.4741H41.911C41.6671 54.4741 41.494 54.4112 41.3917 54.3011C41.2816 54.183 41.2344 54.0257 41.2344 53.829V44.404C41.2344 44.3018 41.258 44.1995 41.3052 44.1129C41.3524 44.0264 41.4153 43.9556 41.5019 43.9005L41.4547 43.9241L41.4389 43.9084Z" fill="#3282C5"/>
<path d="M63.9236 28.2679L54.1131 42.0514C54.1131 42.0514 53.8063 42.4683 54.3806 42.5628H62.9087C62.9087 42.5628 64.6631 42.4133 65.7645 40.3521L74.3713 28.1814C74.3713 28.1814 74.4657 28.0476 74.4421 27.9375H64.1596C64.1596 27.9375 63.9787 28.1892 63.9236 28.26V28.2679Z" fill="url(#paint0_linear_2903_4575)"/>
<path d="M57.5408 28.2679L47.7303 42.0514C47.7303 42.0514 47.4235 42.4683 47.9978 42.5628H50.3422C50.3422 42.5628 52.0966 42.4133 53.1981 40.3521L61.8049 28.1814C61.8049 28.1814 61.8993 28.0476 61.8757 27.9375H57.7768C57.7768 27.9375 57.5959 28.1892 57.5408 28.26V28.2679Z" fill="url(#paint1_linear_2903_4575)"/>
<path d="M63.9236 27.6151L54.1131 13.8317C54.1131 13.8317 53.8063 13.4147 54.3806 13.3203H62.9087C62.9087 13.3203 64.6631 13.4698 65.7645 15.531L74.3713 27.7017C74.3713 27.7017 74.4657 27.8354 74.4421 27.9456H64.1596C64.1596 27.9456 63.9787 27.6938 63.9236 27.623V27.6151Z" fill="url(#paint2_linear_2903_4575)"/>
<path d="M51.971 34.7542L54.0952 32.04L52.624 27.9412C52.624 27.9412 52.4981 27.4691 52.1362 27.4141H49.8075C49.8075 27.4141 49.1781 27.4534 49.2568 28.13L51.971 34.7542Z" fill="#00364E"/>
<path d="M60.3491 35.8047L60.3098 37.8266L58.4609 36.7802L60.3491 35.8047Z" fill="#2B78B2"/>
<path d="M59.7477 41.0923L58.1113 42.2881L57.8281 40.1797L59.7477 41.0923Z" fill="#174F85"/>
<path d="M56.4212 38.6174L55.3906 38.2005L56.2954 37.4609L56.4212 38.6174Z" fill="#6DC6E1"/>
<path d="M64.3665 43.2972L63.3438 42.8723L64.2406 42.1328L64.3665 43.2972Z" fill="#6DC6E1"/>
<path d="M66.1618 37.7564L64.5254 38.9522L64.2422 36.8438L66.1618 37.7564Z" fill="#6DC6E1"/>
<path d="M63.0592 35.0078L63.0435 36.0699L62.4062 35.8417L63.0592 35.0078Z" fill="#6DC6E1"/>
<path d="M59.4832 32.0703L59.9001 33.1009L58.9167 33.9349L58.5312 32.9908L59.4832 32.0703Z" fill="#6DC6E1"/>
<path d="M55.1799 41.2812L55.8014 42.9176L55.1484 42.9098L55.1799 41.2812Z" fill="#6DC6E1"/>
<path d="M56.152 32.6174L54.5156 33.2389L54.5235 32.5859L56.152 32.6174Z" fill="#6DC6E1"/>
<path d="M60.5 39.5391L62.2308 39.7593L61.9161 40.3258L60.5 39.5391Z" fill="#6DC6E1"/>
<path d="M57.3056 35.0607L57.1719 34.1953L57.4866 34.274L57.3056 35.0607Z" fill="#174F85"/>
<path d="M68.1163 31.6875L67.6364 33.3711L67.125 32.9699L68.1163 31.6875Z" fill="#174F85"/>
<path d="M62.2188 29.7734L63.328 30.0488L63.0842 30.3949L62.2188 29.7734Z" fill="#2B78B2"/>
<path d="M53.6965 36.6891L52.1073 37.6725L51.2812 36.6026L51.9578 35.3359L53.6965 36.6891Z" fill="#6DC6E1"/>
<path d="M53.0773 42.0627L53.0537 43.2192L52.0781 42.8494L52.0939 42.0391L53.0773 42.0627Z" fill="#6DC6E1"/>
<path d="M48.508 38.2734L48.4766 39.8941L49.8533 39.4299L49.8691 38.297L48.508 38.2734Z" fill="#2B78B2"/>
<path d="M65.8273 30.4689L65.8037 31.6254L64.8281 31.2635L64.8439 30.4453L65.8273 30.4689Z" fill="#2B78B2"/>
<path d="M69.3489 41.6016L70.1042 42.4827L69.1286 42.8525L68.6094 42.2309L69.3489 41.6016Z" fill="#2B78B2"/>
<path d="M66.1751 34.7656L66.6392 35.3163L66.0413 35.5366L65.7188 35.159L66.1751 34.7656Z" fill="#2B78B2"/>
<path d="M54.1985 45.7578L54.6627 46.3007L54.0648 46.5288L53.7344 46.1512L54.1985 45.7578Z" fill="#2B78B2"/>
<path d="M72.8413 27.1797L72.802 29.2016L70.9453 28.1552L72.8413 27.1797Z" fill="#2B78B2"/>
<path d="M72.24 32.4673L70.6036 33.6631L70.3125 31.5547L72.24 32.4673Z" fill="#174F85"/>
<path d="M68.8977 29.9924L67.875 29.5755L68.7719 28.8359L68.8977 29.9924Z" fill="#6DC6E1"/>
<path d="M76.8587 34.6722L75.8281 34.2473L76.7329 33.5078L76.8587 34.6722Z" fill="#6DC6E1"/>
<path d="M78.6541 29.1313L77.0177 30.3272L76.7266 28.2188L78.6541 29.1313Z" fill="#6DC6E1"/>
<path d="M75.5436 26.3828L75.5279 27.4449L74.8906 27.2168L75.5436 26.3828Z" fill="#6DC6E1"/>
<path d="M71.9676 23.4453L72.3924 24.4759L71.4011 25.3099L71.0156 24.3658L71.9676 23.4453Z" fill="#6DC6E1"/>
<path d="M67.6642 32.6562L68.2857 34.2926L67.6406 34.2848L67.6642 32.6562Z" fill="#6DC6E1"/>
<path d="M68.6364 23.9924L67 24.6139L67.0157 23.9609L68.6364 23.9924Z" fill="#6DC6E1"/>
<path d="M72.9844 30.9141L74.723 31.1343L74.4005 31.7008L72.9844 30.9141Z" fill="#6DC6E1"/>
<path d="M69.79 26.4357L69.6562 25.5703L69.9788 25.649L69.79 26.4357Z" fill="#174F85"/>
<path d="M80.6006 23.0625L80.1286 24.7461L79.6094 24.3449L80.6006 23.0625Z" fill="#174F85"/>
<path d="M74.7031 21.1484L75.8124 21.4238L75.5685 21.7699L74.7031 21.1484Z" fill="#2B78B2"/>
<path d="M66.1809 28.0641L64.5917 29.0475L63.7656 27.9776L64.4422 26.7109L66.1809 28.0641Z" fill="#6DC6E1"/>
<path d="M65.5616 33.4377L65.538 34.5942L64.5703 34.2244L64.5782 33.4141L65.5616 33.4377Z" fill="#6DC6E1"/>
<path d="M60.9924 29.6484L60.9609 31.2691L62.3377 30.8049L62.3613 29.672L60.9924 29.6484Z" fill="#2B78B2"/>
<path d="M78.3038 21.8439L78.2802 23.0004L77.3125 22.6385L77.3282 21.8203L78.3038 21.8439Z" fill="#2B78B2"/>
<path d="M78.6594 26.1406L79.1236 26.6913L78.5257 26.9116L78.2031 26.534L78.6594 26.1406Z" fill="#2B78B2"/>
<path d="M66.6751 37.1328L67.1392 37.6756L66.5413 37.9038L66.2188 37.5262L66.6751 37.1328Z" fill="#2B78B2"/>
<path d="M51.6328 18.3105L52.6084 17.4688L52.8994 18.7826L51.6328 18.3105Z" fill="#2B78B2"/>
<path d="M54.3906 16.3438L55.6494 16.6112L54.7761 17.6418L54.3906 16.3438Z" fill="#174F85"/>
<path d="M54.6363 18.9688L54.8723 19.6296L54.1406 19.5195L54.6363 18.9688Z" fill="#6DC6E1"/>
<path d="M53.4643 13.2266L53.7082 13.8953L52.9766 13.7851L53.4643 13.2266Z" fill="#6DC6E1"/>
<path d="M50.0938 14.7266L51.3525 14.9941L50.4792 16.0247L50.0938 14.7266Z" fill="#6DC6E1"/>
<path d="M50.1094 17.3624L50.6208 16.9219L50.786 17.3231L50.1094 17.3624Z" fill="#6DC6E1"/>
<path d="M50.2344 20.3013L50.5412 19.6641L51.3515 19.7742L51.0762 20.3564L50.2344 20.3013Z" fill="#6DC6E1"/>
<path d="M56.4219 18.4131L56.9254 17.4297L57.2007 17.7444L56.4219 18.4131Z" fill="#6DC6E1"/>
<path d="M51.9141 21.6328L52.8975 22.1363L52.5906 22.4117L51.9141 21.6328Z" fill="#6DC6E1"/>
<path d="M53.3325 16.6476L52.7031 15.735L53.1044 15.6406L53.3325 16.6476Z" fill="#6DC6E1"/>
<path d="M52.5734 20.0547L52.2273 20.4874L52.125 20.3064L52.5734 20.0547Z" fill="#174F85"/>
<path d="M46.3906 16.3862L47.3898 15.8984L47.4212 16.3154L46.3906 16.3862Z" fill="#174F85"/>
<path d="M47.9946 19.989L47.6484 19.3518L47.9159 19.3203L47.9946 19.989Z" fill="#2B78B2"/>
<path d="M54.875 21.0703L56.0158 21.4007L55.8663 22.2425L54.9773 22.4628L54.875 21.0703Z" fill="#6DC6E1"/>
<path d="M57.6797 19.0815L58.2383 18.5938L58.4743 19.2153L58.0809 19.5536L57.6797 19.0815Z" fill="#6DC6E1"/>
<path d="M57.8321 22.8438L58.6109 22.1751L57.8085 21.7188L57.2656 22.1908L57.8321 22.8438Z" fill="#2B78B2"/>
<path d="M46.7812 17.9956L47.3398 17.5078L47.5837 18.1293L47.1903 18.4598L46.7812 17.9956Z" fill="#2B78B2"/>
<path d="M50.5469 11.5988L50.6491 10.8672L51.2313 11.1661L51.1684 11.6775L50.5469 11.5988Z" fill="#2B78B2"/>
<path d="M48.6641 15.9954L48.727 15.5391L49.0889 15.7279L49.0496 16.0426L48.6641 15.9954Z" fill="#2B78B2"/>
<path d="M58.9453 16.9797L59.0083 16.5234L59.3702 16.7123L59.3308 17.0269L58.9453 16.9797Z" fill="#2B78B2"/>
<path d="M62.1331 12.8359L62.0938 14.8657L63.9898 13.8823L62.1331 12.8359Z" fill="#2B78B2"/>
<path d="M62.5391 18.1387L64.1282 19.3974L64.498 17.2969L62.5391 18.1387Z" fill="#174F85"/>
<path d="M65.9688 15.7971L67.0072 15.4116L66.134 14.6406L65.9688 15.7971Z" fill="#6DC6E1"/>
<path d="M57.8516 20.1721L58.8979 19.7944L58.0246 19.0234L57.8516 20.1721Z" fill="#6DC6E1"/>
<path d="M56.2578 14.584L57.8549 15.8349L58.2168 13.7422L56.2578 14.584Z" fill="#6DC6E1"/>
<path d="M59.4689 11.9453L59.4531 13.0074L60.0982 12.795L59.4689 11.9453Z" fill="#6DC6E1"/>
<path d="M63.1438 9.14062L62.6875 10.1555L63.6394 11.0209L64.0643 10.0926L63.1438 9.14062Z" fill="#6DC6E1"/>
<path d="M67.1063 18.5078L66.4219 20.1206L67.0749 20.1285L67.1063 18.5078Z" fill="#6DC6E1"/>
<path d="M66.4531 9.8125L68.0659 10.497L68.0816 9.84398L66.4531 9.8125Z" fill="#6DC6E1"/>
<path d="M61.848 16.5625L60.1094 16.7198L60.4005 17.302L61.848 16.5625Z" fill="#6DC6E1"/>
<path d="M65.2198 12.2091L65.3851 11.3516L65.0625 11.4145L65.2198 12.2091Z" fill="#174F85"/>
<path d="M54.5469 8.42969L54.956 10.129L55.491 9.7514L54.5469 8.42969Z" fill="#174F85"/>
<path d="M60.5078 6.75L59.3906 6.97816L59.6266 7.33218L60.5078 6.75Z" fill="#2B78B2"/>
<path d="M68.7578 13.9699L70.3077 15.0084L71.1731 13.9778L70.5437 12.6797L68.7578 13.9699Z" fill="#6DC6E1"/>
<path d="M69.1799 19.3594L69.1562 20.5237L70.1397 20.1933L70.1554 19.3751L69.1799 19.3594Z" fill="#6DC6E1"/>
<path d="M73.8846 15.7502L73.8532 17.3709L72.5 16.8516L72.5157 15.7188L73.8846 15.7502Z" fill="#2B78B2"/>
<path d="M56.8752 7.30469L56.8516 8.46905L57.835 8.13075L57.8507 7.32043L56.8752 7.30469Z" fill="#2B78B2"/>
<path d="M52.9274 18.3047L52.1406 19.1622L53.1004 19.5634L53.6511 18.9655L52.9274 18.3047Z" fill="#2B78B2"/>
<path d="M56.3628 11.5859L55.875 12.113L56.465 12.3648L56.8112 11.995L56.3628 11.5859Z" fill="#2B78B2"/>
<path d="M67.9253 23.0234L67.4375 23.5505L68.0275 23.8023L68.3658 23.4325L67.9253 23.0234Z" fill="#2B78B2"/>
<path d="M62.8359 8.72462L63.8115 7.88281L64.1026 9.20452L62.8359 8.72462Z" fill="#2B78B2"/>
<path d="M65.5938 6.76562L66.8525 7.02525L65.9793 8.05586L65.5938 6.76562Z" fill="#174F85"/>
<path d="M65.8394 9.38281L66.0754 10.0515L65.3438 9.93352L65.8394 9.38281Z" fill="#6DC6E1"/>
<path d="M64.6753 3.64844L64.9114 4.3093L64.1797 4.19916L64.6753 3.64844Z" fill="#6DC6E1"/>
<path d="M61.2969 5.14844L62.5556 5.41592L61.6824 6.43867L61.2969 5.14844Z" fill="#6DC6E1"/>
<path d="M61.3125 7.79213L61.8239 7.35156L61.9812 7.75279L61.3125 7.79213Z" fill="#6DC6E1"/>
<path d="M61.4375 10.7153L61.7522 10.0859L62.5625 10.1961L62.2793 10.7783L61.4375 10.7153Z" fill="#6DC6E1"/>
<path d="M67.625 8.83503L68.1285 7.84375L68.4039 8.15845L67.625 8.83503Z" fill="#6DC6E1"/>
<path d="M63.1172 12.0547L64.1085 12.5582L63.7938 12.8336L63.1172 12.0547Z" fill="#6DC6E1"/>
<path d="M64.5356 7.06165L63.9062 6.14904L64.3075 6.0625L64.5356 7.06165Z" fill="#6DC6E1"/>
<path d="M63.7766 10.4766L63.4304 10.9014L63.3281 10.7204L63.7766 10.4766Z" fill="#174F85"/>
<path d="M57.5938 6.80808L58.5929 6.32031L58.6244 6.72941L57.5938 6.80808Z" fill="#174F85"/>
<path d="M59.1977 10.4109L58.8516 9.77365L59.1269 9.74219L59.1977 10.4109Z" fill="#2B78B2"/>
<path d="M66.0781 11.4844L67.211 11.8148L67.0615 12.6645L66.1725 12.8847L66.0781 11.4844Z" fill="#6DC6E1"/>
<path d="M68.8828 9.49553L69.4414 9.01562L69.6774 9.62927L69.2919 9.96756L68.8828 9.49553Z" fill="#6DC6E1"/>
<path d="M69.0352 13.2656L69.814 12.5891L69.0116 12.1406L68.4688 12.6127L69.0352 13.2656Z" fill="#2B78B2"/>
<path d="M58 8.40959L58.5586 7.92969L58.7946 8.54333L58.4012 8.88163L58 8.40959Z" fill="#2B78B2"/>
<path d="M61.7578 2.01291L61.8522 1.28125L62.4423 1.58807L62.3715 2.09944L61.7578 2.01291Z" fill="#2B78B2"/>
<path d="M59.875 6.40938L59.9301 5.96094L60.2998 6.14976L60.2526 6.46444L59.875 6.40938Z" fill="#2B78B2"/>
<path d="M70.1562 7.39375L70.2113 6.94531L70.5732 7.13413L70.5339 7.44882L70.1562 7.39375Z" fill="#2B78B2"/>
<path d="M57.3344 5.2309L56.6736 4.60938L56.4297 5.53772L57.3344 5.2309Z" fill="#2B78B2"/>
<path d="M55.4515 3.77344L54.5625 3.92292L55.1447 4.67818L55.4515 3.77344Z" fill="#174F85"/>
<path d="M55.2044 5.61719L55.0234 6.08137L55.5427 6.01843L55.2044 5.61719Z" fill="#6DC6E1"/>
<path d="M56.181 1.60156L55.9922 2.06573L56.5114 2.00279L56.181 1.60156Z" fill="#6DC6E1"/>
<path d="M58.5219 2.75781L57.625 2.90729L58.215 3.66256L58.5219 2.75781Z" fill="#6DC6E1"/>
<path d="M58.4408 4.61161L58.0946 4.28906L57.9688 4.56441L58.4408 4.61161Z" fill="#6DC6E1"/>
<path d="M58.2632 6.66724L58.0665 6.21094L57.4922 6.27388L57.6731 6.69084L58.2632 6.66724Z" fill="#6DC6E1"/>
<path d="M53.9569 5.18462L53.6264 4.47656L53.4219 4.68898L53.9569 5.18462Z" fill="#6DC6E1"/>
<path d="M57.0518 7.57031L56.3438 7.90074L56.5562 8.09742L57.0518 7.57031Z" fill="#6DC6E1"/>
<path d="M56.1875 4.02055L56.6517 3.39118L56.3684 3.3125L56.1875 4.02055Z" fill="#6DC6E1"/>
<path d="M56.625 6.44531L56.861 6.75214L56.9318 6.63413L56.625 6.44531Z" fill="#174F85"/>
<path d="M61.0831 4.0182L60.3987 3.64844L60.3672 3.93953L61.0831 4.0182Z" fill="#174F85"/>
<path d="M59.8516 6.51109L60.1191 6.07053L59.9302 6.03906L59.8516 6.51109Z" fill="#2B78B2"/>
<path d="M54.9822 7.09375L54.1719 7.29043L54.2584 7.89622L54.8799 8.0693L54.9822 7.09375Z" fill="#6DC6E1"/>
<path d="M53.0508 5.61965L52.6732 5.26562L52.4844 5.69046L52.7519 5.94221L53.0508 5.61965Z" fill="#6DC6E1"/>
<path d="M52.8475 8.27116L52.3125 7.77552L52.8947 7.47656L53.2644 7.82272L52.8475 8.27116Z" fill="#2B78B2"/>
<path d="M60.7539 5.13527L60.3763 4.78125L60.1953 5.20609L60.4549 5.45784L60.7539 5.13527Z" fill="#2B78B2"/>
<path d="M58.2767 0.527043L58.2217 0.0078125L57.8047 0.212357L57.8362 0.574257L58.2767 0.527043Z" fill="#2B78B2"/>
<path d="M59.4865 3.68194L59.455 3.35938L59.1875 3.48525L59.2111 3.70554L59.4865 3.68194Z" fill="#2B78B2"/>
<path d="M52.213 4.11161L52.1815 3.78906L51.9219 3.90707L51.9455 4.13521L52.213 4.11161Z" fill="#2B78B2"/>
<defs>
<linearGradient id="paint0_linear_2903_4575" x1="54.7504" y1="43.1607" x2="71.0907" y2="29.0861" gradientUnits="userSpaceOnUse">
<stop offset="0.22" stop-color="#4DB8E4"/>
<stop offset="0.58" stop-color="#0D7CA7"/>
<stop offset="0.99" stop-color="#0E2025"/>
</linearGradient>
<linearGradient id="paint1_linear_2903_4575" x1="47.0459" y1="41.6344" x2="60.3101" y2="30.2111" gradientUnits="userSpaceOnUse">
<stop offset="0.22" stop-color="#4DB8E4"/>
<stop offset="0.58" stop-color="#0D7CA7"/>
<stop offset="0.99" stop-color="#0E2025"/>
</linearGradient>
<linearGradient id="paint2_linear_2903_4575" x1="74.7096" y1="28.4019" x2="54.5144" y2="13.9654" gradientUnits="userSpaceOnUse">
<stop offset="0.22" stop-color="#4DB8E4"/>
<stop offset="0.58" stop-color="#0D7CA7"/>
<stop offset="0.99" stop-color="#0E2025"/>
</linearGradient>
</defs>
</svg>
