<svg width="53" height="40" viewBox="0 0 53 40" fill="none" xmlns="http://www.w3.org/2000/svg">
<path d="M35.1456 21.8182H49.6911V24.2424C49.6911 31.5944 43.7097 37.5757 36.3578 37.5757V40C45.0463 40 52.1152 32.9309 52.1152 24.2424V21.8182V20.6061V4.84847C52.1152 2.17437 49.9409 0 47.2668 0H35.1456C32.4715 0 30.2971 2.17437 30.2971 4.84847V16.9696C30.2971 19.6437 32.4715 21.8182 35.1456 21.8182Z" fill="#FCDE5A"/>
<path d="M4.84872 21.8182H19.3941V24.2424C19.3941 31.5944 13.4128 37.5757 6.06077 37.5757V40C14.7493 40 21.8184 32.9309 21.8184 24.2424V21.8182V20.6061V4.84847C21.8184 2.17437 19.644 0 16.9699 0H4.84872C2.17462 0 0.000253677 2.17437 0.000253677 4.84847V16.9696C0.000253677 19.6437 2.17462 21.8182 4.84872 21.8182Z" fill="#FCDE5A"/>
</svg>
