<svg width="76" height="32" viewBox="0 0 76 32" fill="none" xmlns="http://www.w3.org/2000/svg">
<rect x="44" width="32" height="32" rx="8" fill="#D4E9FF"/>
<path d="M63.9987 16.6667C63.9987 16.8021 63.9774 16.9281 63.9348 17.0447C63.8922 17.1613 63.8191 17.2722 63.7155 17.3773L58.7394 22.4253C58.5861 22.5808 58.3935 22.6604 58.1614 22.6639C57.9293 22.6676 57.733 22.588 57.5726 22.4253C57.4122 22.2625 57.332 22.0653 57.332 21.8334C57.332 21.6016 57.4122 21.4043 57.5726 21.2416L62.0824 16.6667L57.5726 12.0918C57.4193 11.9363 57.3409 11.7408 57.3373 11.5054C57.3338 11.2699 57.4122 11.0709 57.5726 10.9082C57.733 10.7454 57.9275 10.6641 58.156 10.6641C58.3846 10.6641 58.579 10.7454 58.7394 10.9082L63.7155 15.9561C63.8191 16.0612 63.8922 16.1721 63.9348 16.2887C63.9774 16.4054 63.9987 16.5313 63.9987 16.6667Z" fill="#007BFF"/>
<g opacity="0.5">
<rect width="32" height="32" rx="8" transform="matrix(-1 0 0 1 32 0)" fill="#D4E9FF"/>
<path d="M12.0013 16.6667C12.0013 16.8021 12.0226 16.9281 12.0652 17.0447C12.1078 17.1613 12.1809 17.2722 12.2845 17.3773L17.2606 22.4253C17.4139 22.5808 17.6065 22.6604 17.8386 22.6639C18.0707 22.6676 18.267 22.588 18.4274 22.4253C18.5878 22.2625 18.668 22.0653 18.668 21.8334C18.668 21.6016 18.5878 21.4043 18.4274 21.2416L13.9176 16.6667L18.4274 12.0918C18.5807 11.9363 18.6591 11.7408 18.6627 11.5054C18.6662 11.2699 18.5878 11.0709 18.4274 10.9082C18.267 10.7454 18.0725 10.6641 17.844 10.6641C17.6154 10.6641 17.421 10.7454 17.2606 10.9082L12.2845 15.9561C12.1809 16.0612 12.1078 16.1721 12.0652 16.2887C12.0226 16.4054 12.0013 16.5313 12.0013 16.6667Z" fill="#007BFF"/>
</g>
</svg>
