<svg width="24" height="28" viewBox="0 0 24 28" fill="none" xmlns="http://www.w3.org/2000/svg">
<path d="M23.0174 0H0.98257C0.721987 0 0.472076 0.107015 0.287816 0.297501C0.103556 0.487987 4.00938e-05 0.746341 4.00938e-05 1.01573V19.5697C-0.00147508 19.7408 0.0399781 19.9094 0.120347 20.0589C0.200716 20.2085 0.317249 20.3339 0.458554 20.4229L11.476 27.6278C11.6317 27.7333 11.8138 27.7895 12 27.7895C12.1862 27.7895 12.3683 27.7333 12.524 27.6278L23.5414 20.4229C23.6827 20.3339 23.7993 20.2085 23.8797 20.0589C23.96 19.9094 24.0015 19.7408 24 19.5697V1.01573C24 0.746341 23.8964 0.487987 23.7122 0.297501C23.5279 0.107015 23.278 0 23.0174 0Z" fill="#007BFF"/>
<path d="M7.88445 13.17L7.30301 16.4738C7.26848 16.6647 7.2909 16.861 7.36772 17.0405C7.44455 17.2199 7.5727 17.3753 7.73766 17.489C7.90262 17.6027 8.09777 17.6701 8.301 17.6837C8.50422 17.6973 8.70738 17.6565 8.88744 17.5658L11.9982 16.0176L15.1089 17.5658C15.2659 17.643 15.4409 17.681 15.6176 17.6764C15.8477 17.6826 16.0732 17.6143 16.2572 17.4829C16.4213 17.3698 16.5491 17.2155 16.6261 17.0373C16.7031 16.859 16.7264 16.6639 16.6933 16.4738L16.1118 13.17L18.6266 10.8338C18.7701 10.6971 18.8707 10.5251 18.9169 10.337C18.9631 10.149 18.9532 9.95236 18.8882 9.76937C18.8274 9.5857 18.7132 9.4221 18.5589 9.29739C18.4047 9.17267 18.2165 9.0919 18.0161 9.06437L14.542 8.58055L12.9721 5.58085C12.8715 5.42046 12.7289 5.28764 12.5582 5.19541C12.3875 5.10318 12.1945 5.05469 11.9982 5.05469C11.8018 5.05469 11.6088 5.10318 11.4381 5.19541C11.2674 5.28764 11.1248 5.42046 11.0242 5.58085L9.45434 8.58055L5.98023 9.06437C5.77982 9.0919 5.59164 9.17267 5.43736 9.29739C5.28307 9.4221 5.16893 9.5857 5.10807 9.76937C5.0431 9.95236 5.03317 10.149 5.0794 10.337C5.12563 10.5251 5.22618 10.6971 5.36972 10.8338L7.88445 13.17Z" fill="white"/>
</svg>
