<svg width="264" height="41" viewBox="0 0 264 41" fill="none" xmlns="http://www.w3.org/2000/svg">
<rect opacity="0.2" x="0.5" y="0.507812" width="39" height="39" rx="7.5" fill="white" stroke="#080E14"/>
<path d="M17.7166 28.0078H20.9296V19.6953H23.4753L23.6632 17.3016H20.9296V15.4328C20.9296 14.7891 21.5255 14.5578 22.1927 14.5578C22.8599 14.5578 23.5725 14.7578 23.5725 14.7578L24 12.3078C24 12.3078 23.0931 12.0078 20.9296 12.0078C19.6016 12.0078 18.8308 12.4953 18.2672 13.2141C17.736 13.8953 17.7166 14.9891 17.7166 15.6953V17.3016H16V19.6953H17.7166V28.0078Z" fill="#007BFF"/>
<rect opacity="0.2" x="56.5" y="0.507812" width="39" height="39" rx="7.5" fill="white" stroke="#080E14"/>
<path fill-rule="evenodd" clip-rule="evenodd" d="M72.3192 27.4116C79.3013 27.4116 83.1204 21.716 83.1204 16.7773C83.1204 16.6152 83.1204 16.4543 83.1093 16.294C83.8521 15.7657 84.4933 15.1097 85.003 14.3592C84.311 14.6616 83.5755 14.8599 82.8234 14.9474C83.6153 14.4801 84.2083 13.746 84.4924 12.8798C83.7467 13.3152 82.9316 13.6224 82.0814 13.7873C80.6437 12.2826 78.2393 12.2097 76.71 13.6251C75.7247 14.5378 75.3056 15.8986 75.6118 17.1965C72.5597 17.0454 69.7158 15.6263 67.7878 13.2918C66.7803 14.9996 67.2956 17.1836 68.9637 18.2803C68.3596 18.2629 67.7684 18.1028 67.2401 17.8132V17.8606C67.241 19.6395 68.515 21.1712 70.2857 21.5237C69.7269 21.674 69.1404 21.6958 68.5723 21.5874C69.0691 23.1104 70.4948 24.1535 72.1184 24.1835C70.7742 25.2237 69.1136 25.7885 67.4039 25.7867C67.1023 25.7858 66.8007 25.7685 66.5 25.733C68.2365 26.8296 70.2561 27.4116 72.3192 27.4089" fill="#007BFF"/>
<rect opacity="0.2" x="112.5" y="0.507812" width="39" height="39" rx="7.5" fill="white" stroke="#080E14"/>
<path fill-rule="evenodd" clip-rule="evenodd" d="M124.914 13.282C123.366 13.4106 122.196 14.7416 122.12 16.3816C122.058 17.7327 122 19.2876 122 20.361C122 21.4466 122.06 23.0249 122.123 24.3867C122.197 26.0057 123.341 27.3278 124.868 27.4768C126.558 27.6418 129.003 27.8078 132 27.8078C134.989 27.8078 137.43 27.6426 139.119 27.4781C140.652 27.3288 141.798 25.9981 141.871 24.3729C141.936 22.939 142 21.2984 142 20.361C142 19.4336 141.938 17.818 141.873 16.3953C141.799 14.749 140.627 13.4097 139.073 13.281C137.409 13.1431 135.009 13.0078 132 13.0078C128.983 13.0078 126.579 13.1438 124.914 13.282ZM130 17.223L135.156 20.361L130 23.4989V17.223Z" fill="#007BFF"/>
<path opacity="0.2" d="M168.5 8.00781C168.5 3.86568 171.858 0.507812 176 0.507812H200C204.142 0.507812 207.5 3.86568 207.5 8.00781V32.0078C207.5 36.1499 204.142 39.5078 200 39.5078H176C171.858 39.5078 168.5 36.1499 168.5 32.0078V8.00781Z" fill="white" stroke="#080E14"/>
<path d="M188 11.0078C183.03 11.0078 179 15.0377 179 20.0078C179 23.8207 181.372 27.0773 184.72 28.3882C184.642 27.6765 184.57 26.5837 184.752 25.8066C184.915 25.1046 185.807 21.3329 185.807 21.3329C185.807 21.3329 185.538 20.7936 185.538 19.9971C185.538 18.7454 186.263 17.8115 187.166 17.8115C187.934 17.8115 188.305 18.3882 188.305 19.0791C188.305 19.8517 187.813 21.0058 187.559 22.0754C187.347 22.9716 188.008 23.7023 188.892 23.7023C190.491 23.7023 191.721 22.0155 191.721 19.581C191.721 17.4262 190.173 15.9194 187.962 15.9194C185.401 15.9194 183.898 17.8402 183.898 19.8254C183.898 20.5987 184.196 21.4281 184.568 21.8795C184.642 21.9688 184.652 22.0467 184.631 22.1373C184.562 22.4215 184.411 23.0329 184.381 23.1582C184.341 23.3233 184.25 23.3575 184.08 23.2783C182.956 22.7549 182.253 21.1117 182.253 19.7915C182.253 16.9527 184.315 14.3451 188.2 14.3451C191.322 14.3451 193.748 16.5695 193.748 19.5433C193.748 22.6452 191.792 25.1413 189.078 25.1413C188.166 25.1413 187.309 24.6674 187.016 24.1077C187.016 24.1077 186.564 25.826 186.454 26.2472C186.251 27.0289 185.703 28.0092 185.335 28.6066C186.178 28.8669 187.072 29.0078 188 29.0078C192.97 29.0078 197 24.9779 197 20.0078C197 15.0377 192.97 11.0078 188 11.0078Z" fill="#007BFF"/>
<rect opacity="0.2" x="224.5" y="0.507812" width="39" height="39" rx="7.5" fill="white" stroke="#080E14"/>
<path d="M238.482 11.0078C237.388 11.0078 236.5 11.894 236.5 12.9883C236.5 14.0825 237.387 14.9893 238.48 14.9893C239.574 14.9893 240.462 14.0825 240.462 12.9883C240.462 11.8948 239.576 11.0078 238.482 11.0078ZM248.151 16.2578C246.487 16.2578 245.535 17.1282 245.078 17.9937H245.03V16.4907H241.75V27.5078H245.167V22.0542C245.167 20.6172 245.276 19.2285 247.054 19.2285C248.807 19.2285 248.833 20.867 248.833 22.145V27.5078H252.246H252.25V21.4565C252.25 18.4955 251.613 16.2578 248.151 16.2578ZM236.772 16.4907V27.5078H240.193V16.4907H236.772Z" fill="#007BFF"/>
</svg>
