<svg width="122" height="28" viewBox="0 0 122 28" fill="none" xmlns="http://www.w3.org/2000/svg">
<path d="M11.1163 5.57936H6.90734V4.51727C6.90734 4.02164 6.85226 3.69909 6.74212 3.56534C6.63198 3.4316 6.4589 3.36078 6.20715 3.36078C5.9318 3.36078 5.72724 3.4552 5.59349 3.63614C5.45188 3.81709 5.38108 4.09244 5.38108 4.47007C5.38108 4.94998 5.45976 5.31187 5.61711 5.55576C5.77445 5.79178 6.19928 6.09073 6.89946 6.43689C8.91348 7.42817 10.1801 8.24637 10.6994 8.87575C11.2265 9.513 11.4861 10.5357 11.4861 11.9361C11.4861 12.9589 11.3366 13.7141 11.0455 14.2019C10.7544 14.6897 10.1959 15.0909 9.36192 15.4213C8.52799 15.7517 7.56818 15.917 6.4589 15.917C5.24734 15.917 4.20886 15.7281 3.35133 15.3505C2.49379 14.9729 1.93522 14.493 1.66773 13.9029C1.40024 13.3129 1.27437 12.479 1.27437 11.4011V10.4571H5.48335V12.2036C5.48335 12.7464 5.53842 13.0926 5.65643 13.2421C5.77444 13.3994 5.98686 13.4702 6.28582 13.4702C6.58477 13.4702 6.81292 13.3758 6.9624 13.1791C7.11188 12.9825 7.18268 12.6914 7.18268 12.3137C7.18268 11.4641 7.04107 10.9134 6.76572 10.6537C6.47463 10.3941 5.76658 9.95356 4.64156 9.33992C3.51654 8.72627 2.77702 8.27783 2.40726 7.99461C2.04536 7.71925 1.73853 7.33376 1.50251 6.83812C1.26649 6.35035 1.14062 5.72097 1.14062 4.95784C1.14062 3.85642 1.3137 3.0461 1.65199 2.54259C1.99029 2.03122 2.541 1.63785 3.30412 1.34676C4.06725 1.05568 4.97985 0.914062 6.05767 0.914062C7.23776 0.914062 8.2369 1.07141 9.06296 1.3861C9.88903 1.70079 10.4397 2.09415 10.7072 2.57406C10.9747 3.05396 11.1085 3.85642 11.1085 5.00504V5.57149L11.1163 5.57936ZM17.1191 3.81709L16.9617 5.36694C17.599 4.24979 18.5194 3.65974 19.7153 3.59681V7.74286C18.9207 7.74286 18.3306 7.8294 17.953 8.01035C17.5754 8.19129 17.3472 8.43518 17.2607 8.74987C17.1741 9.06456 17.1348 9.79621 17.1348 10.9448V15.6023H12.7921V3.80923H17.1112L17.1191 3.81709ZM25.1673 1.21302V3.08544H20.6908V1.21302H25.1673ZM25.1673 3.81709V15.6101H20.6908V3.81709H25.1673ZM41.3424 7.4911H36.803V4.98932C36.803 4.25766 36.7558 3.80922 36.6614 3.62827C36.5669 3.44732 36.3545 3.36078 36.0241 3.36078C35.6543 3.36078 35.4183 3.47093 35.3239 3.69121C35.2216 3.91149 35.1744 4.38353 35.1744 5.11518V11.7945C35.1744 12.4947 35.2295 12.951 35.3239 13.1634C35.4262 13.3758 35.6465 13.4781 35.9926 13.4781C36.3388 13.4781 36.5512 13.3758 36.6535 13.1555C36.7558 12.9431 36.8108 12.4396 36.8108 11.645V9.83555H41.3503V10.3941C41.3503 11.8889 41.2244 12.9431 40.9648 13.5646C40.713 14.1862 40.1466 14.7369 39.2733 15.2089C38.4 15.6809 37.3222 15.9091 36.0477 15.9091C34.7732 15.9091 33.6246 15.7124 32.7592 15.3112C31.9017 14.9099 31.3273 14.3671 31.0441 13.659C30.7609 12.9589 30.6272 11.8968 30.6272 10.4885V6.28741C30.6272 5.24893 30.6744 4.47008 30.753 3.95871C30.8396 3.43947 31.0913 2.93595 31.524 2.46392C31.9489 1.98401 32.5389 1.60638 33.302 1.33103C34.0573 1.05567 34.9306 0.921937 35.914 0.921937C37.2514 0.921937 38.3528 1.13435 39.2261 1.55918C40.0915 1.98402 40.6658 2.51112 40.9412 3.14837C41.2165 3.78561 41.3503 4.77689 41.3503 6.11433V7.48324L41.3424 7.4911ZM47.1799 1.21302V4.45434C47.5575 4.17111 47.9588 3.95084 48.3915 3.80923C48.8242 3.66761 49.2883 3.59681 49.7918 3.59681C50.555 3.59681 51.2001 3.75415 51.7351 4.07671C52.27 4.39927 52.5926 4.76903 52.7185 5.186C52.8365 5.60296 52.8915 6.36608 52.8915 7.47536V15.6101H48.5488V7.31016C48.5488 6.62571 48.5095 6.18513 48.4229 5.98845C48.3364 5.79177 48.1554 5.69737 47.8643 5.69737C47.5969 5.69737 47.4159 5.79964 47.3215 6.00419C47.2271 6.20087 47.1799 6.6021 47.1799 7.20002V15.618H42.8372V1.22089H47.1799V1.21302ZM58.2728 8.38011H54.1896V7.58552C54.1896 6.67291 54.3155 5.97273 54.5751 5.46922C54.8269 4.97358 55.3461 4.54088 56.1093 4.15539C56.8802 3.77776 57.8715 3.58894 59.1067 3.58894C60.5779 3.58894 61.6872 3.80135 62.4345 4.23405C63.1819 4.65889 63.6304 5.186 63.7798 5.81538C63.9293 6.4369 64.008 7.72712 64.008 9.6782V15.6023H59.7754V14.548C59.5079 14.9729 59.1618 15.2876 58.7448 15.5C58.3278 15.7124 57.8243 15.8147 57.2421 15.8147C56.479 15.8147 55.7867 15.6416 55.1494 15.2876C54.5122 14.9335 54.1975 14.1626 54.1975 12.9667V11.999C54.1975 11.1179 54.3706 10.5121 54.701 10.1974C55.0393 9.87489 55.8811 9.50513 57.2185 9.0803C58.6504 8.61613 59.4135 8.3093 59.5158 8.14409C59.618 7.98674 59.6653 7.65632 59.6653 7.16068C59.6653 6.54703 59.6102 6.1458 59.5 5.95699C59.3899 5.76817 59.2011 5.68163 58.9415 5.68163C58.6425 5.68163 58.4616 5.7603 58.3908 5.91765C58.32 6.07499 58.2806 6.48409 58.2806 7.13708V8.37225L58.2728 8.38011ZM59.6653 9.9929C58.9651 10.4177 58.556 10.7639 58.4458 11.055C58.3357 11.3382 58.2806 11.7473 58.2806 12.2823C58.2806 12.8959 58.3278 13.2893 58.4301 13.4624C58.5245 13.6433 58.7212 13.7299 59.0123 13.7299C59.3034 13.7299 59.4607 13.659 59.5472 13.5174C59.6338 13.3758 59.6731 13.0139 59.6731 12.416V9.9929H59.6653ZM69.9871 1.20516V3.07756H65.5107V1.20516H69.9871ZM69.9871 3.80923V15.6023H65.5107V3.80923H69.9871ZM76.1157 2.24363V4.10031H77.3273V5.97272H76.1157V12.2823C76.1157 13.0533 76.1708 13.486 76.2652 13.5804C76.3675 13.6669 76.7766 13.7141 77.5004 13.7141V15.6101H75.7381C74.7468 15.6101 74.0388 15.5787 73.6061 15.5079C73.1812 15.4449 72.8115 15.2797 72.481 15.0358C72.1585 14.7919 71.9539 14.5087 71.8753 14.194C71.7966 13.8793 71.7573 13.1319 71.7573 11.9676V5.98845H70.8289V4.11605H71.7573V2.25937H76.1L76.1157 2.24363ZM82.1499 8.38011H78.0668V7.58552C78.0668 6.67291 78.1927 5.97273 78.4523 5.46922C78.7041 4.97358 79.2233 4.54088 79.9864 4.15539C80.7574 3.77776 81.7487 3.58894 82.9839 3.58894C84.455 3.58894 85.5643 3.80135 86.3117 4.23405C87.0591 4.65889 87.5075 5.186 87.657 5.81538C87.8065 6.4369 87.8852 7.72712 87.8852 9.6782V15.6023H83.6526V14.548C83.3851 14.9729 83.0389 15.2876 82.622 15.5C82.205 15.7124 81.7015 15.8147 81.1193 15.8147C80.3562 15.8147 79.6639 15.6416 79.0266 15.2876C78.3894 14.9335 78.0747 14.1626 78.0747 12.9667V11.999C78.0747 11.1179 78.2478 10.5121 78.5782 10.1974C78.9165 9.87489 79.7583 9.50513 81.0957 9.0803C82.5276 8.61613 83.2907 8.3093 83.393 8.14409C83.4952 7.98674 83.5424 7.65632 83.5424 7.16068C83.5424 6.54703 83.4874 6.1458 83.3772 5.95699C83.2671 5.76817 83.0783 5.68163 82.8187 5.68163C82.5197 5.68163 82.3387 5.7603 82.2679 5.91765C82.1971 6.07499 82.1578 6.48409 82.1578 7.13708V8.37225L82.1499 8.38011ZM83.5424 9.9929C82.8422 10.4177 82.4332 10.7639 82.323 11.055C82.2129 11.3382 82.1578 11.7473 82.1578 12.2823C82.1578 12.8959 82.205 13.2893 82.3073 13.4624C82.4017 13.6433 82.5984 13.7299 82.8895 13.7299C83.1805 13.7299 83.3379 13.659 83.4244 13.5174C83.511 13.3758 83.5503 13.0139 83.5503 12.416V9.9929H83.5424ZM93.7935 3.80923L93.7306 4.90278C94.0452 4.46221 94.4307 4.13965 94.887 3.91937C95.3433 3.69908 95.8704 3.58894 96.4684 3.58894C97.2157 3.58894 97.8215 3.73842 98.3014 4.02951C98.7735 4.3206 99.0803 4.68249 99.2141 5.13092C99.3478 5.57149 99.4186 6.31101 99.4186 7.34162V15.6101H95.0759V7.4439C95.0759 6.63357 95.0444 6.13793 94.9736 5.95699C94.9106 5.77604 94.7297 5.6895 94.4307 5.6895C94.116 5.6895 93.9272 5.79178 93.8407 5.99633C93.762 6.20087 93.7227 6.75158 93.7227 7.64058V15.6101H89.38V3.81709H93.7935V3.80923ZM110.024 3.80923L108.781 12.3452C108.584 13.6984 108.419 14.6189 108.285 15.1145C108.151 15.6023 107.931 16.0114 107.624 16.3339C107.317 16.6565 106.893 16.8925 106.342 17.042C105.791 17.1915 104.918 17.2701 103.714 17.2701H101.079V15.3741C101.755 15.3741 102.188 15.3505 102.377 15.2876C102.573 15.2325 102.668 15.1066 102.668 14.9099C102.668 14.8155 102.573 14.4064 102.392 13.6748L100.009 3.81709H103.95L105.374 11.7945L106.074 3.81709H110.008L110.024 3.80923ZM114.681 8.38011H110.598V7.58552C110.598 6.67291 110.724 5.97273 110.983 5.46922C111.235 4.97358 111.754 4.54088 112.518 4.15539C113.289 3.77776 114.28 3.58894 115.515 3.58894C116.986 3.58894 118.095 3.80135 118.843 4.23405C119.59 4.65889 120.039 5.186 120.188 5.81538C120.338 6.4369 120.416 7.72712 120.416 9.6782V15.6023H116.184V14.548C115.916 14.9729 115.57 15.2876 115.153 15.5C114.736 15.7124 114.233 15.8147 113.65 15.8147C112.887 15.8147 112.195 15.6416 111.558 15.2876C110.921 14.9335 110.606 14.1626 110.606 12.9667V11.999C110.606 11.1179 110.779 10.5121 111.109 10.1974C111.448 9.87489 112.289 9.50513 113.627 9.0803C115.059 8.61613 115.822 8.3093 115.924 8.14409C116.026 7.98674 116.074 7.65632 116.074 7.16068C116.074 6.54703 116.019 6.1458 115.908 5.95699C115.798 5.76817 115.609 5.68163 115.35 5.68163C115.051 5.68163 114.87 5.7603 114.799 5.91765C114.728 6.07499 114.689 6.48409 114.689 7.13708V8.37225L114.681 8.38011ZM116.074 9.9929C115.373 10.4177 114.964 10.7639 114.854 11.055C114.744 11.3382 114.689 11.7473 114.689 12.2823C114.689 12.8959 114.736 13.2893 114.838 13.4624C114.933 13.6433 115.13 13.7299 115.421 13.7299C115.712 13.7299 115.869 13.659 115.956 13.5174C116.042 13.3758 116.081 13.0139 116.081 12.416V9.9929H116.074Z" fill="#DF2A2B"/>
<path d="M0.59375 27.3172V18.7891H6.7145V19.7883H1.71878V22.4081H6.41554V23.4072H1.71878V26.3102H6.91904V27.3094H0.59375V27.3172ZM12.3003 27.3172V26.5462C12.1114 26.8452 11.8676 27.0733 11.5765 27.2307C11.2775 27.388 10.9628 27.4667 10.6167 27.4667C9.89287 27.4667 9.26349 27.1835 8.73638 26.617C8.20927 26.0506 7.94179 25.256 7.94179 24.2333C7.94179 23.5331 8.0598 22.9352 8.29582 22.4474C8.53183 21.9596 8.84652 21.5977 9.23989 21.3617C9.63325 21.1257 10.066 21.0077 10.5459 21.0077C10.8841 21.0077 11.2067 21.0785 11.4978 21.228C11.7889 21.3775 12.0328 21.582 12.2295 21.8495V18.7891H13.2679V27.3172H12.3003ZM9.01174 24.2411C9.01174 25.0436 9.17695 25.6336 9.51525 26.027C9.85354 26.4125 10.2469 26.6092 10.6875 26.6092C11.128 26.6092 11.5135 26.4204 11.8361 26.0506C12.1586 25.6808 12.3239 25.1144 12.3239 24.3591C12.3239 23.4937 12.1665 22.8565 11.8361 22.4631C11.5135 22.0619 11.1044 21.8652 10.6088 21.8652C10.1682 21.8652 9.79846 22.054 9.48377 22.4395C9.16908 22.825 9.01174 23.4229 9.01174 24.2411ZM18.9166 27.3172V26.4125C18.6806 26.7587 18.3974 27.0261 18.0748 27.1992C17.7523 27.3723 17.3825 27.4589 16.9734 27.4589C16.4935 27.4589 16.0765 27.3487 15.7304 27.1363C15.3921 26.9239 15.1561 26.6485 15.0459 26.3181C14.9279 25.9877 14.8729 25.5392 14.8729 24.9649V21.1336H15.9113V24.5637C15.9113 25.2009 15.9507 25.6258 16.0293 25.8461C16.108 26.0585 16.2496 26.2316 16.4542 26.3653C16.6666 26.4912 16.9026 26.562 17.1701 26.562C17.6657 26.562 18.0748 26.3968 18.3895 26.0585C18.6649 25.7674 18.7986 25.2324 18.7986 24.4535V21.1414H19.8371V27.3251H18.9166V27.3172ZM25.5015 25.0672L26.54 25.2009C26.422 25.9326 26.1231 26.499 25.651 26.8845C25.179 27.27 24.6125 27.4667 23.9438 27.4667C23.1414 27.4667 22.4726 27.1914 21.9534 26.6485C21.4342 26.1057 21.1745 25.2953 21.1745 24.2333C21.1745 23.1712 21.4342 22.353 21.9613 21.818C22.4884 21.283 23.165 21.0156 23.9832 21.0156C24.6204 21.0156 25.1554 21.1808 25.5881 21.5033C26.0208 21.8259 26.304 22.3136 26.422 22.9666L25.415 23.124C25.3127 22.707 25.1475 22.3923 24.9036 22.1878C24.6597 21.9832 24.3608 21.8731 24.0225 21.8731C23.5111 21.8731 23.0863 22.0619 22.748 22.4317C22.4097 22.8093 22.2445 23.3993 22.2445 24.2175C22.2445 25.0357 22.4018 25.673 22.7244 26.0427C23.0469 26.4204 23.456 26.6092 23.9517 26.6092C24.345 26.6092 24.6833 26.4833 24.9587 26.2394C25.234 25.9877 25.415 25.6022 25.4858 25.0751L25.5015 25.0672ZM31.4099 26.562C31.0637 26.8609 30.7018 27.0891 30.3242 27.2386C29.9465 27.388 29.5532 27.4667 29.1519 27.4667C28.5147 27.4667 28.0033 27.3094 27.6178 26.9868C27.2323 26.6721 27.0435 26.2394 27.0435 25.6966C27.0435 25.3425 27.1301 25.02 27.311 24.7446C27.492 24.4693 27.7358 24.249 28.0427 24.0995C28.3495 23.9422 28.8215 23.832 29.4588 23.7534C30.3084 23.6511 30.93 23.5331 31.3233 23.3993V23.1319C31.3233 22.707 31.2368 22.4081 31.0558 22.235C30.7962 21.9832 30.4028 21.8652 29.8679 21.8652C29.388 21.8652 29.0261 21.9518 28.7822 22.117C28.5462 22.2822 28.3652 22.5969 28.2551 23.0453L27.2166 22.888C27.3661 22.2271 27.6572 21.7551 28.1056 21.4561C28.554 21.1572 29.1913 21.0077 30.0174 21.0077C30.6625 21.0077 31.166 21.11 31.5357 21.3066C31.9055 21.5033 32.1336 21.7551 32.2281 22.0462C32.3225 22.3451 32.3697 22.77 32.3697 23.3364V24.7289C32.3697 25.7044 32.3933 26.3181 32.4405 26.5777C32.4877 26.8295 32.5742 27.0812 32.708 27.3172H31.6223C31.5121 27.1048 31.4413 26.8531 31.402 26.5541L31.4099 26.562ZM31.3312 24.2254C30.9536 24.3827 30.3792 24.5086 29.6319 24.6188C29.1913 24.6817 28.8845 24.7525 28.7114 24.8312C28.5383 24.9099 28.4046 25.02 28.3023 25.1695C28.2079 25.3111 28.1607 25.4842 28.1607 25.673C28.1607 25.9641 28.2708 26.2001 28.4911 26.381C28.7114 26.5541 29.0182 26.6485 29.4116 26.6485C29.8049 26.6485 30.1196 26.5698 30.4265 26.4125C30.7333 26.2552 30.9614 26.0427 31.1109 25.7753C31.2604 25.5078 31.3391 25.1223 31.3391 24.6188V24.2333L31.3312 24.2254ZM36.319 26.381L36.4607 27.3094C36.1696 27.3723 35.9099 27.4038 35.6818 27.4038C35.3199 27.4038 35.0288 27.3408 34.8007 27.2228C34.5804 27.1048 34.4309 26.9396 34.3444 26.7351C34.2578 26.5305 34.2185 26.1214 34.2185 25.5078V21.9439H33.4553V21.1336H34.2185V19.6073L35.257 18.9779V21.1336H36.3112V21.9439H35.257V25.5628C35.257 25.9011 35.2884 26.1135 35.3514 26.208C35.4379 26.3496 35.611 26.4204 35.8549 26.4204C35.9729 26.4204 36.1302 26.4046 36.3112 26.3732L36.319 26.381ZM37.2867 19.9928V18.7891H38.3252V19.9928H37.2867ZM37.2867 27.3172V21.1336H38.3252V27.3172H37.2867ZM39.5289 24.2333C39.5289 23.1633 39.8042 22.3609 40.3392 21.818C40.8821 21.2752 41.5665 21.0077 42.4004 21.0077C43.2344 21.0077 43.9031 21.283 44.4538 21.818C45.0045 22.3609 45.2799 23.1476 45.2799 24.1703C45.2799 25.2796 45.0124 26.1057 44.4695 26.6485C43.9267 27.1914 43.2422 27.4589 42.4083 27.4589C41.5744 27.4589 40.8978 27.1835 40.3549 26.6406C39.8121 26.0978 39.5367 25.2953 39.5367 24.2333H39.5289ZM40.5988 24.2333C40.5988 25.0357 40.7719 25.6336 41.1259 26.0191C41.48 26.4125 41.9127 26.6013 42.4319 26.6013C42.9197 26.6013 43.3366 26.4046 43.6828 26.0113C44.029 25.6179 44.202 25.02 44.202 24.2254C44.202 23.4308 44.029 22.8329 43.6749 22.4474C43.3209 22.054 42.8882 21.8652 42.369 21.8652C41.8812 21.8652 41.4564 22.0619 41.1102 22.4553C40.764 22.8486 40.591 23.4387 40.591 24.2333H40.5988ZM46.5072 27.3251V21.1414H47.4434V22.0304C47.6715 21.6921 47.9469 21.4325 48.2694 21.2673C48.5998 21.1021 48.9696 21.0156 49.3944 21.0156C49.7249 21.0156 50.0238 21.0706 50.307 21.1729C50.5824 21.2752 50.8106 21.4168 50.9836 21.5899C51.1567 21.7629 51.2826 21.9832 51.3691 22.2664C51.4557 22.5418 51.495 22.9666 51.495 23.5331V27.333H50.4565V23.5803C50.4565 23.124 50.4093 22.7936 50.3149 22.589C50.2205 22.3845 50.071 22.2192 49.8744 22.1012C49.6777 21.9911 49.4495 21.9282 49.182 21.9282C48.6864 21.9282 48.293 22.0776 47.9941 22.3845C47.6951 22.6913 47.5535 23.2184 47.5535 23.9579V27.333H46.515L46.5072 27.3251ZM57.0886 26.562C56.7425 26.8609 56.3806 27.0891 56.0029 27.2386C55.6253 27.388 55.232 27.4667 54.8307 27.4667C54.1935 27.4667 53.6821 27.3094 53.2966 26.9868C52.9111 26.6721 52.7223 26.2394 52.7223 25.6966C52.7223 25.3425 52.8088 25.02 52.9898 24.7446C53.1707 24.4693 53.4146 24.249 53.7214 24.0995C54.0283 23.9422 54.5003 23.832 55.1376 23.7534C55.9872 23.6511 56.6087 23.5331 57.0021 23.3993V23.1319C57.0021 22.707 56.9156 22.4081 56.7346 22.235C56.475 21.9832 56.0816 21.8652 55.5466 21.8652C55.0667 21.8652 54.7048 21.9518 54.461 22.117C54.2249 22.2822 54.044 22.5969 53.9339 23.0453L52.8954 22.888C53.0449 22.2271 53.336 21.7551 53.7844 21.4561C54.2328 21.1572 54.8701 21.0077 55.6961 21.0077C56.3412 21.0077 56.8447 21.11 57.2145 21.3066C57.5843 21.5033 57.8124 21.7551 57.9068 22.0462C58.0012 22.3451 58.0484 22.77 58.0484 23.3364V24.7289C58.0484 25.7044 58.072 26.3181 58.1192 26.5777C58.1664 26.8295 58.253 27.0812 58.3867 27.3172H57.3011C57.1909 27.1048 57.1201 26.8531 57.0808 26.5541L57.0886 26.562ZM57.01 24.2254C56.6323 24.3827 56.058 24.5086 55.3106 24.6188C54.8701 24.6817 54.5632 24.7525 54.3902 24.8312C54.2171 24.9099 54.0833 25.02 53.9811 25.1695C53.8867 25.3111 53.8394 25.4842 53.8394 25.673C53.8394 25.9641 53.9496 26.2001 54.1699 26.381C54.3902 26.5541 54.697 26.6485 55.0904 26.6485C55.4837 26.6485 55.7984 26.5698 56.1052 26.4125C56.412 26.2552 56.6402 26.0427 56.7897 25.7753C56.9391 25.5078 57.0178 25.1223 57.0178 24.6188V24.2333L57.01 24.2254ZM59.6455 27.3251V18.797H60.684V27.3251H59.6455ZM65.9551 27.3251V18.797H67.0801V27.3251H65.9551ZM68.8895 27.3251V21.1414H69.8257V22.0304C70.0539 21.6921 70.3293 21.4325 70.6518 21.2673C70.9822 21.1021 71.352 21.0156 71.7768 21.0156C72.1073 21.0156 72.4062 21.0706 72.6894 21.1729C72.9648 21.2752 73.1929 21.4168 73.366 21.5899C73.5391 21.7629 73.665 21.9832 73.7515 22.2664C73.8381 22.5418 73.8774 22.9666 73.8774 23.5331V27.333H72.8389V23.5803C72.8389 23.124 72.7917 22.7936 72.6973 22.589C72.6029 22.3845 72.4534 22.2192 72.2567 22.1012C72.06 21.9911 71.8319 21.9282 71.5644 21.9282C71.0688 21.9282 70.6754 22.0776 70.3765 22.3845C70.0775 22.6913 69.9359 23.2184 69.9359 23.9579V27.333H68.8974L68.8895 27.3251ZM75.0732 25.4763L76.1117 25.319C76.1746 25.7517 76.3398 26.0742 76.6073 26.2866C76.8827 26.499 77.2367 26.6013 77.6852 26.6013C78.1336 26.6013 78.4797 26.5069 78.7236 26.326C78.9675 26.145 79.0934 25.909 79.0934 25.6258C79.0934 25.3819 78.9911 25.1931 78.7866 25.0515C78.645 24.9571 78.2909 24.8469 77.7324 24.7053C76.922 24.5008 76.3792 24.3277 76.1117 24.1861C75.8364 24.0445 75.6239 23.8478 75.4744 23.6118C75.325 23.3679 75.2463 23.1004 75.2463 22.7936C75.2463 22.2664 75.4509 21.8416 75.8599 21.5112C76.2691 21.1808 76.8355 21.0156 77.5593 21.0156C78.0156 21.0156 78.4168 21.0864 78.763 21.2201C79.1091 21.3538 79.3687 21.5427 79.5576 21.7708C79.7385 21.999 79.8644 22.3294 79.9352 22.7542L78.9282 22.9116C78.8338 22.2192 78.3853 21.8731 77.5907 21.8731C77.1344 21.8731 76.7962 21.9518 76.5759 22.1012C76.3556 22.2507 76.2454 22.4395 76.2454 22.6755C76.2454 22.9116 76.3477 23.0846 76.568 23.2184C76.6939 23.2971 77.0794 23.4229 77.7088 23.5882C78.5742 23.8084 79.1249 23.9815 79.3845 24.1153C79.6362 24.249 79.8329 24.4299 79.9667 24.666C80.1083 24.902 80.1791 25.1773 80.1791 25.492C80.1791 26.0821 79.9509 26.562 79.4946 26.9239C79.0383 27.2936 78.4247 27.4746 77.6379 27.4746C76.1668 27.4746 75.3171 26.8137 75.0811 25.4842L75.0732 25.4763ZM83.7272 26.381L83.8688 27.3094C83.5777 27.3723 83.3181 27.4038 83.09 27.4038C82.7281 27.4038 82.437 27.3408 82.2088 27.2228C81.9886 27.1048 81.8391 26.9396 81.7525 26.7351C81.666 26.5305 81.6266 26.1214 81.6266 25.5078V21.9439H80.8635V21.1336H81.6266V19.6073L82.6651 18.9779V21.1336H83.7193V21.9439H82.6651V25.5628C82.6651 25.9011 82.6966 26.1135 82.7595 26.208C82.8461 26.3496 83.0192 26.4204 83.2631 26.4204C83.3811 26.4204 83.5384 26.4046 83.7193 26.3732L83.7272 26.381ZM84.6949 19.9928V18.7891H85.7334V19.9928H84.6949ZM84.6949 27.3172V21.1336H85.7334V27.3172H84.6949ZM89.6513 26.3732L89.7929 27.3015C89.5018 27.3644 89.2422 27.3959 89.014 27.3959C88.6521 27.3959 88.3611 27.333 88.1329 27.215C87.9126 27.097 87.7631 26.9317 87.6766 26.7272C87.59 26.5226 87.5507 26.1135 87.5507 25.4999V21.936H86.7876V21.1257H87.5507V19.5994L88.5892 18.9701V21.1257H89.6434V21.936H88.5892V25.555C88.5892 25.8933 88.6207 26.1057 88.6836 26.2001C88.7701 26.3417 88.9432 26.4125 89.1871 26.4125C89.3051 26.4125 89.4625 26.3968 89.6434 26.3653L89.6513 26.3732ZM94.6312 27.3172V26.4125C94.3952 26.7587 94.112 27.0261 93.7895 27.1992C93.4669 27.3723 93.0971 27.4589 92.688 27.4589C92.2081 27.4589 91.7912 27.3487 91.445 27.1363C91.1067 26.9239 90.8707 26.6485 90.7606 26.3181C90.6426 25.9877 90.5875 25.5392 90.5875 24.9649V21.1336H91.626V24.5637C91.626 25.2009 91.6653 25.6258 91.744 25.8461C91.8226 26.0585 91.9642 26.2316 92.1688 26.3653C92.3812 26.4912 92.6172 26.562 92.8847 26.562C93.3804 26.562 93.7895 26.3968 94.1042 26.0585C94.3795 25.7674 94.5132 25.2324 94.5132 24.4535V21.1414H95.5517V27.3251H94.6312V27.3172ZM99.5247 26.3732L99.6663 27.3015C99.3752 27.3644 99.1156 27.3959 98.8874 27.3959C98.5256 27.3959 98.2345 27.333 98.0063 27.215C97.786 27.097 97.6366 26.9317 97.55 26.7272C97.4635 26.5226 97.4241 26.1135 97.4241 25.4999V21.936H96.661V21.1257H97.4241V19.5994L98.4626 18.9701V21.1257H99.5168V21.936H98.4626V25.555C98.4626 25.8933 98.4941 26.1057 98.557 26.2001C98.6436 26.3417 98.8166 26.4125 99.0605 26.4125C99.1785 26.4125 99.3359 26.3968 99.5168 26.3653L99.5247 26.3732ZM100.492 19.9849V18.7812H101.531V19.9849H100.492ZM100.492 27.3094V21.1257H101.531V27.3094H100.492ZM102.735 24.2254C102.735 23.1555 103.01 22.353 103.545 21.8101C104.088 21.2673 104.772 20.9998 105.606 20.9998C106.44 20.9998 107.109 21.2752 107.659 21.8101C108.21 22.353 108.486 23.1397 108.486 24.1625C108.486 25.2717 108.218 26.0978 107.675 26.6406C107.132 27.1835 106.448 27.451 105.614 27.451C104.78 27.451 104.103 27.1756 103.561 26.6328C103.018 26.0899 102.742 25.2875 102.742 24.2254H102.735ZM103.804 24.2254C103.804 25.0279 103.978 25.6258 104.332 26.0113C104.686 26.4046 105.118 26.5934 105.638 26.5934C106.125 26.5934 106.542 26.3968 106.888 26.0034C107.235 25.61 107.408 25.0121 107.408 24.2175C107.408 23.4229 107.235 22.825 106.881 22.4395C106.527 22.0462 106.094 21.8574 105.575 21.8574C105.087 21.8574 104.662 22.054 104.316 22.4474C103.97 22.8408 103.797 23.4308 103.797 24.2254H103.804ZM109.713 27.3172V21.1336H110.649V22.0226C110.877 21.6843 111.153 21.4246 111.475 21.2594C111.806 21.0942 112.175 21.0077 112.6 21.0077C112.931 21.0077 113.229 21.0628 113.513 21.165C113.788 21.2673 114.016 21.4089 114.189 21.582C114.362 21.7551 114.488 21.9754 114.575 22.2586C114.661 22.5339 114.701 22.9588 114.701 23.5252V27.3251H113.662V23.5724C113.662 23.1161 113.615 22.7857 113.521 22.5811C113.426 22.3766 113.277 22.2114 113.08 22.0934C112.883 21.9832 112.655 21.9203 112.388 21.9203C111.892 21.9203 111.499 22.0698 111.2 22.3766C110.901 22.6834 110.759 23.2105 110.759 23.95V27.3251H109.721L109.713 27.3172ZM115.896 25.4684L116.935 25.3111C116.998 25.7438 117.163 26.0663 117.431 26.2788C117.706 26.4912 118.06 26.5934 118.508 26.5934C118.957 26.5934 119.303 26.499 119.547 26.3181C119.791 26.1372 119.917 25.9011 119.917 25.6179C119.917 25.374 119.814 25.1852 119.61 25.0436C119.468 24.9492 119.114 24.8391 118.556 24.6974C117.745 24.4929 117.202 24.3198 116.935 24.1782C116.66 24.0366 116.447 23.8399 116.298 23.6039C116.148 23.36 116.07 23.0925 116.07 22.7857C116.07 22.2586 116.274 21.8337 116.683 21.5033C117.092 21.1729 117.659 21.0077 118.383 21.0077C118.839 21.0077 119.24 21.0785 119.586 21.2122C119.932 21.346 120.192 21.5348 120.381 21.7629C120.562 21.9911 120.688 22.3215 120.758 22.7464L119.751 22.9037C119.657 22.2114 119.209 21.8652 118.414 21.8652C117.958 21.8652 117.619 21.9439 117.399 22.0934C117.179 22.2428 117.069 22.4317 117.069 22.6677C117.069 22.9037 117.171 23.0768 117.391 23.2105C117.517 23.2892 117.903 23.4151 118.532 23.5803C119.397 23.8006 119.948 23.9737 120.208 24.1074C120.46 24.2411 120.656 24.4221 120.79 24.6581C120.932 24.8941 121.002 25.1695 121.002 25.4842C121.002 26.0742 120.774 26.5541 120.318 26.916C119.862 27.2858 119.248 27.4667 118.461 27.4667C116.99 27.4667 116.14 26.8059 115.904 25.4763L115.896 25.4684Z" fill="#5B5C5E"/>
</svg>
