<svg width="28" height="29" viewBox="0 0 28 29" fill="none" xmlns="http://www.w3.org/2000/svg">
<path fill-rule="evenodd" clip-rule="evenodd" d="M21.0034 18.9469C21.0034 19.5596 20.5006 20.0622 19.8878 20.0622H7.27864C6.6661 20.0622 6.16309 19.559 6.16309 18.9469C6.16309 16.128 6.16309 13.3092 6.16309 10.4904C6.16309 9.87774 6.66601 9.375 7.27864 9.375H19.8878C20.4994 9.375 21.0034 9.87883 21.0034 10.4904V11.5605V11.5686V18.9469ZM20.421 18.9469V12.0975L13.739 16.3331C13.639 16.3965 13.5152 16.3913 13.4225 16.33L6.74552 12.0977V18.9468C6.74552 19.2396 6.98597 19.4796 7.27864 19.4796H19.8878C20.1809 19.4797 20.421 19.2397 20.421 18.9469ZM6.74552 11.4008L13.5831 15.7348L20.421 11.4007V10.4903C20.421 10.1973 20.181 9.95735 19.8878 9.95735H7.27864C6.98452 9.95735 6.74552 10.1961 6.74552 10.4903V11.4008Z" fill="#080E14" stroke="#080E14" stroke-width="0.35"/>
</svg>
