<svg width="76" height="32" viewBox="0 0 76 32" fill="none" xmlns="http://www.w3.org/2000/svg">
<rect x="44" width="32" height="32" rx="8" fill="#D4E9FF"/>
<path d="M63.9948 16.6667C63.9948 16.8021 63.9735 16.9281 63.9309 17.0447C63.8883 17.1613 63.8152 17.2722 63.7116 17.3773L58.7355 22.4253C58.5822 22.5808 58.3895 22.6604 58.1575 22.6639C57.9254 22.6676 57.7291 22.588 57.5687 22.4253C57.4083 22.2625 57.3281 22.0653 57.3281 21.8334C57.3281 21.6016 57.4083 21.4043 57.5687 21.2416L62.0785 16.6667L57.5687 12.0918C57.4154 11.9363 57.337 11.7408 57.3334 11.5054C57.3299 11.2699 57.4083 11.0709 57.5687 10.9082C57.7291 10.7454 57.9236 10.6641 58.1521 10.6641C58.3807 10.6641 58.5751 10.7454 58.7355 10.9082L63.7116 15.9561C63.8152 16.0612 63.8883 16.1721 63.9309 16.2887C63.9735 16.4054 63.9948 16.5313 63.9948 16.6667Z" fill="#007BFF"/>
<g opacity="0.5">
<rect width="32" height="32" rx="8" transform="matrix(-1 0 0 1 32 0)" fill="#D4E9FF"/>
<path d="M12.0052 16.6667C12.0052 16.8021 12.0265 16.9281 12.0691 17.0447C12.1117 17.1613 12.1848 17.2722 12.2884 17.3773L17.2645 22.4253C17.4178 22.5808 17.6105 22.6604 17.8425 22.6639C18.0746 22.6676 18.2709 22.588 18.4313 22.4253C18.5917 22.2625 18.6719 22.0653 18.6719 21.8334C18.6719 21.6016 18.5917 21.4043 18.4313 21.2416L13.9215 16.6667L18.4313 12.0918C18.5846 11.9363 18.663 11.7408 18.6666 11.5054C18.6701 11.2699 18.5917 11.0709 18.4313 10.9082C18.2709 10.7454 18.0764 10.6641 17.8479 10.6641C17.6193 10.6641 17.4249 10.7454 17.2645 10.9082L12.2884 15.9561C12.1848 16.0612 12.1117 16.1721 12.0691 16.2887C12.0265 16.4054 12.0052 16.5313 12.0052 16.6667Z" fill="#007BFF"/>
</g>
</svg>
