<svg width="24" height="25" viewBox="0 0 24 25" fill="none" xmlns="http://www.w3.org/2000/svg">
<path d="M6.48193 3.00781C5.38768 3.00781 4.5 3.89403 4.5 4.98828C4.5 6.08253 5.38697 6.98926 6.48047 6.98926C7.57397 6.98926 8.4624 6.08253 8.4624 4.98828C8.4624 3.89478 7.57618 3.00781 6.48193 3.00781ZM16.1514 8.25781C14.4871 8.25781 13.5349 9.12815 13.0781 9.99365H13.0298V8.49072H9.75V19.5078H13.1675V14.0542C13.1675 12.6172 13.2759 11.2285 15.0542 11.2285C16.8069 11.2285 16.8325 12.867 16.8325 14.145V19.5078H20.2456H20.25V13.4565C20.25 10.4955 19.6134 8.25781 16.1514 8.25781ZM4.77246 8.49072V19.5078H8.19287V8.49072H4.77246Z" fill="#007BFF"/>
</svg>
