<svg width="20" height="20" viewBox="0 0 20 20" fill="none" xmlns="http://www.w3.org/2000/svg">
<mask id="mask0_2908_858" style="mask-type:alpha" maskUnits="userSpaceOnUse" x="0" y="0" width="20" height="20">
<rect width="20" height="20" fill="#D9D9D9"/>
</mask>
<g mask="url(#mask0_2908_858)">
<path d="M10.001 16.2638C11.6313 14.8044 12.8789 13.4046 13.7438 12.0643C14.6086 10.724 15.041 9.55013 15.041 8.54265C15.041 7.02342 14.5584 5.77449 13.5931 4.79586C12.6278 3.81722 11.4305 3.3279 10.001 3.3279C8.57149 3.3279 7.37411 3.81722 6.40883 4.79586C5.44356 5.77449 4.96092 7.02342 4.96092 8.54265C4.96092 9.55013 5.39334 10.724 6.25819 12.0643C7.12305 13.4046 8.37065 14.8044 10.001 16.2638ZM10.001 17.4529C9.83859 17.4529 9.6762 17.4248 9.51381 17.3688C9.35142 17.3127 9.20452 17.2258 9.0731 17.1083C8.32526 16.4192 7.62548 15.7096 6.97377 14.9794C6.32206 14.2491 5.75556 13.5192 5.27425 12.7895C4.79294 12.0598 4.41207 11.3365 4.13162 10.6196C3.85117 9.90269 3.71094 9.21038 3.71094 8.54265C3.71094 6.61959 4.333 5.06271 5.57712 3.872C6.82124 2.68129 8.29585 2.08594 10.001 2.08594C11.7061 2.08594 13.1807 2.68129 14.4248 3.872C15.669 5.06271 16.291 6.61959 16.291 8.54265C16.291 9.21038 16.1508 9.90136 15.8703 10.6156C15.5899 11.3298 15.2103 12.0531 14.7317 12.7855C14.2531 13.5178 13.6879 14.2478 13.0362 14.9754C12.3845 15.7029 11.6847 16.4112 10.9369 17.1003C10.8074 17.2178 10.6602 17.306 10.4954 17.3648C10.3306 17.4235 10.1658 17.4529 10.001 17.4529ZM10.0024 9.8904C10.417 9.8904 10.7715 9.74276 11.0659 9.44748C11.3602 9.1522 11.5074 8.79724 11.5074 8.38258C11.5074 7.96793 11.3597 7.61344 11.0645 7.3191C10.7692 7.02477 10.4142 6.8776 9.99956 6.8776C9.58491 6.8776 9.23042 7.02524 8.93608 7.32052C8.64175 7.6158 8.49458 7.97076 8.49458 8.38542C8.49458 8.80007 8.64222 9.15456 8.9375 9.4489C9.23278 9.74323 9.58774 9.8904 10.0024 9.8904Z" fill="#007BFF"/>
</g>
</svg>
