<svg width="20" height="16" viewBox="0 0 20 16" fill="none" xmlns="http://www.w3.org/2000/svg">
<path fill-rule="evenodd" clip-rule="evenodd" d="M6.31921 15.4116C13.3013 15.4116 17.1204 9.71598 17.1204 4.77734C17.1204 4.61521 17.1204 4.45429 17.1093 4.29398C17.8521 3.76568 18.4933 3.10974 19.003 2.3592C18.311 2.66161 17.5755 2.85993 16.8234 2.94736C17.6153 2.4801 18.2083 1.74599 18.4924 0.879774C17.7467 1.31516 16.9316 1.62244 16.0814 1.78731C14.6437 0.282576 12.2393 0.209672 10.71 1.62514C9.72469 2.53781 9.3056 3.89859 9.61182 5.19655C6.55975 5.04535 3.71583 3.62627 1.78781 1.29176C0.780321 2.9996 1.29563 5.18359 2.96368 6.28026C2.35956 6.26295 1.76838 6.10281 1.24012 5.81317V5.8606C1.24105 7.6395 2.51498 9.17122 4.28572 9.52371C3.72693 9.674 3.14038 9.6958 2.57234 9.58741C3.06915 11.1104 4.49481 12.1535 6.11845 12.1835C4.7742 13.2237 3.11355 13.7885 1.40387 13.7867C1.10227 13.7858 0.800674 13.7685 0.5 13.733C2.23651 14.8296 4.25612 15.4116 6.31921 15.4089" fill="#007BFF"/>
</svg>
