<svg width="72" height="70" viewBox="0 0 72 70" fill="none" xmlns="http://www.w3.org/2000/svg">
<path d="M19.633 69.0926C22.6645 69.398 23.0443 64.3871 20.1764 64.0982C16.8633 63.7645 13.5501 63.4308 10.237 63.097C16.2494 61.589 20.2587 56.5106 22.1816 50.6625C23.9982 51.2429 25.8167 51.7381 27.5882 52.1543C31.7775 53.1385 36.2351 53.3015 39.907 50.7624C45.5624 46.8517 46.0409 39.9976 44.8555 33.6846C54.0571 35.1443 63.1154 33.2505 68.1112 23.9484C71.2433 18.1166 72.012 10.8165 71.2102 4.31367C71.0123 2.70946 67.0586 5.6171 67.27 7.33155C68.4451 16.8605 66.0465 29.5708 54.3967 30.3552C50.9449 30.5876 47.3398 30.1458 43.7495 29.2391C43.5774 28.6758 43.3987 28.1239 43.2146 27.5895C39.8865 17.9276 33.4786 6.89735 24.1077 1.88217C18.5758 -1.07849 6.34564 -1.38573 7.43075 7.84468C7.9827 12.54 12.3341 16.8264 15.6961 19.7725C21.8046 25.1252 29.2715 29.0628 36.9611 31.6866C37.9528 32.025 38.9572 32.3342 39.9678 32.6134C40.4678 34.3938 40.8444 36.1009 41.0862 37.6759C41.4915 40.3164 41.8651 43.8867 40.5746 46.3568C38.8274 49.701 34.2357 49.0075 31.0961 48.3357C28.8825 47.862 26.1013 47.1668 23.228 46.2084C24.7075 36.0666 20.2852 25.74 9.59216 28.4466C1.45373 30.5066 2.57116 38.6291 7.73951 43.113C11.0422 45.9783 15.1645 48.1114 19.4387 49.7103C18.2572 54.8369 14.9258 59.1671 9.25583 59.521C11.0582 57.1255 12.8605 54.73 14.6629 52.3345C16.4064 50.0172 12.9776 46.607 11.0289 49.1969C7.50435 53.8814 3.97969 58.566 0.455048 63.2506C-0.528065 64.5572 0.198351 67.1351 2.00028 67.3166C7.87789 67.9086 13.7554 68.5006 19.633 69.0926ZM21.144 17.7059C18.1649 15.345 15.2036 12.6102 13.1922 9.3665C12.4693 8.20077 11.4429 6.54113 11.4049 5.10776C11.3576 3.32302 12.3925 3.65284 14.6805 3.83802C25.5885 4.72083 33.968 16.4759 38.2499 27.4898C31.8909 25.0701 25.8587 21.4425 21.144 17.7059ZM7.67601 34.8066C6.71744 31.9541 7.92048 31.9222 10.7349 32.2425C14.915 32.718 17.7134 35.5209 19.0008 39.3641C19.5862 41.1116 19.8959 43.0391 19.9276 44.9884C14.4303 42.7531 9.24638 39.4798 7.67601 34.8066Z" fill="#FCDE5A"/>
</svg>
