<svg width="20" height="15" viewBox="0 0 20 15" fill="none" xmlns="http://www.w3.org/2000/svg">
<path fill-rule="evenodd" clip-rule="evenodd" d="M2.91449 0.282035C1.36613 0.410631 0.195807 1.74162 0.120433 3.38155C0.0583334 4.73275 0 6.28762 0 7.36097C0 8.44661 0.0596755 10.0249 0.122567 11.3867C0.197333 13.0057 1.34087 14.3278 2.86764 14.4768C4.55776 14.6418 7.00316 14.8078 10 14.8078C12.989 14.8078 15.4295 14.6426 17.1192 14.4781C18.6518 14.3288 19.7976 12.9981 19.8714 11.3729C19.9364 9.93904 20 8.29842 20 7.36097C20 6.4336 19.9378 4.81802 19.8735 3.39527C19.7991 1.749 18.6269 0.409738 17.0726 0.280955C15.409 0.143127 13.0095 0.0078125 10 0.0078125C6.98273 0.0078125 4.57858 0.143831 2.91449 0.282035ZM8 4.22299L13.1556 7.36097L8 10.4989V4.22299Z" fill="#007BFF"/>
</svg>
