<svg width="91" height="67" viewBox="0 0 91 67" fill="none" xmlns="http://www.w3.org/2000/svg">
<path d="M74.1399 0.739539C71.5092 -0.793457 69.0878 3.60998 71.5766 5.06023C74.4518 6.73563 77.327 8.41099 80.2022 10.0864C74.1089 8.96976 68.3585 11.932 64.1867 16.4586C62.7749 15.1782 61.326 13.9746 59.8872 12.8624C56.4847 10.2323 52.4979 8.23849 48.1062 9.02929C41.3423 10.2473 38.0676 16.2874 36.5304 22.5239C28.7659 17.3859 19.7426 15.3593 11.3449 21.7574C6.08019 25.7685 2.35674 32.0944 0.392104 38.3449C-0.0925387 39.8868 4.70809 38.8773 5.22607 37.2294C8.10495 28.0702 15.5522 17.4949 26.473 21.6041C29.7088 22.8216 32.8048 24.7162 35.6947 27.0278C35.6179 27.6118 35.5518 28.1881 35.4978 28.7507C34.5221 38.9222 35.7807 51.6143 42.2262 60.0584C46.0311 65.0432 57.0276 70.3862 59.8646 61.5359C61.3078 57.034 59.1258 51.3312 57.2884 47.258C53.95 39.8572 48.7899 33.1822 42.8829 27.6106C42.1211 26.8921 41.3356 26.1948 40.5322 25.5223C40.815 23.695 41.1797 21.9853 41.6122 20.4518C42.3375 17.8807 43.4768 14.4765 45.6739 12.7626C48.6484 10.4423 52.5375 12.9744 55.1148 14.8857C56.9318 16.2332 59.1734 18.0174 61.3898 20.0792C55.8426 28.6972 55.5867 39.9268 66.4337 41.8903C74.6893 43.3847 77.0379 35.5294 74.1947 29.3087C72.3779 25.3335 69.5122 21.6855 66.287 18.4607C69.4854 14.284 74.3094 11.722 79.6131 13.7473C76.9814 15.1814 74.3497 16.6154 71.718 18.0495C69.1721 19.4368 70.878 23.9601 73.7233 22.4097C78.8697 19.6052 84.0163 16.8008 89.1628 13.9964C90.5983 13.2142 91.0055 10.5672 89.4418 9.65596C84.3412 6.68379 79.2406 3.71166 74.1399 0.739539ZM51.4772 46.8834C53.2087 50.2656 54.7691 53.9806 55.2548 57.7656C55.4294 59.1258 55.6754 61.0613 55.1162 62.3816C54.4198 64.0256 53.6152 63.2969 51.6108 62.1811C42.0553 56.8617 39.3038 42.6938 39.972 30.8968C44.7534 35.7317 48.737 41.5307 51.4772 46.8834ZM70.8113 36.8951C70.5014 39.8881 69.394 39.419 66.9669 37.9624C63.3619 35.799 61.9779 32.0894 62.3991 28.0586C62.5906 26.2258 63.1074 24.3432 63.8862 22.5559C67.9601 26.8663 71.319 31.9917 70.8113 36.8951Z" fill="#007BFF"/>
</svg>
